<svg width="438" height="406" viewBox="0 0 438 406" fill="none" xmlns="http://www.w3.org/2000/svg">
<path d="M219.115 405.625C328.207 405.625 416.644 395.294 416.644 382.55C416.644 369.806 328.207 359.474 219.115 359.474C110.023 359.474 21.5856 369.806 21.5856 382.55C21.5856 395.294 110.023 405.625 219.115 405.625Z" fill="#EBEBEB"/>
<path d="M4.62906 339.882L58.248 339.645L111.867 339.556L219.115 339.389L326.363 339.556L379.982 339.645L433.601 339.882L379.982 340.119L326.363 340.207L219.115 340.375L111.867 340.207L58.248 340.119L4.62906 339.882Z" fill="#263238"/>
<path d="M176.454 265.882L178.713 279.249L194.02 360.796H196.48L185.352 279.249L183.712 265.882H176.454Z" fill="#DBDBDB"/>
<path d="M183.712 265.882H176.454L178.713 279.249H185.352L183.712 265.882Z" fill="#A6A6A6"/>
<path d="M128.394 360.796H130.863L146.17 279.249L148.43 265.882H141.171L139.531 279.249L128.394 360.796Z" fill="#DBDBDB"/>
<path d="M141.171 265.882L139.531 279.249H146.17L148.43 265.882H141.171Z" fill="#A6A6A6"/>
<path d="M82.5031 360.796H84.9626L100.269 279.249L102.529 265.882H95.2705L93.6308 279.249L82.5031 360.796Z" fill="#DBDBDB"/>
<path d="M93.6308 279.249H100.269L102.529 265.882H95.2704L93.6308 279.249Z" fill="#A6A6A6"/>
<path d="M86.4123 272.166H198.539V260.505H156.568L142.461 179.52H90.6914L86.4123 272.166Z" fill="#DBDBDB"/>
<path d="M86.4123 272.166H92.521L96.5102 179.52H90.6914L86.4123 272.166Z" fill="#A6A6A6"/>
<path d="M204.118 376.206C201.879 376.453 140.361 363.135 138.392 361.211C138.152 360.994 139.261 355.479 140.891 347.952V347.804C141.891 343.039 159.067 304.317 159.067 304.317L198.969 314.538L181.573 350.497C181.573 350.497 189.141 355.686 195.64 360.629C198.513 362.682 201.258 364.906 203.858 367.288C205.758 369.606 206.318 375.95 204.118 376.206Z" fill="#AD6359"/>
<path d="M204.118 376.206C201.879 376.463 140.361 363.144 138.392 361.221C138.152 361.004 139.261 355.489 140.891 347.962V347.824C141.261 346.048 143.89 339.537 147.03 332.088C153.598 333.706 177.134 339.537 185.682 341.954L181.563 350.477C181.563 350.477 189.131 355.676 195.63 360.609C198.502 362.66 201.247 364.881 203.848 367.258C205.758 369.616 206.318 375.95 204.118 376.206Z" fill="#EBEBEB"/>
<path d="M204.278 376.463C201.969 376.709 140.411 363.223 138.392 361.24C137.622 360.491 138.801 350.931 141.971 340.76L181.653 349.501C181.653 349.501 202.118 364.9 204.118 367.327C206.118 369.754 206.588 376.206 204.278 376.463Z" fill="#A6A6A6"/>
<path d="M138.392 361.24C139.741 362.562 167.736 369.034 186.812 373.079C196.25 375.052 203.518 376.532 204.268 376.453C206.588 376.206 206.058 369.685 204.098 367.288C201.564 364.894 198.893 362.644 196.1 360.55C189.621 355.459 181.663 349.471 181.663 349.471L141.981 340.74C138.802 350.931 137.612 360.5 138.392 361.24Z" fill="#C7C7C7"/>
<path d="M186.812 373.099C196.25 375.072 203.518 376.551 204.268 376.473C206.588 376.226 206.058 369.705 204.098 367.308C201.564 364.914 198.893 362.664 196.1 360.57L186.812 373.099Z" fill="#A6A6A6"/>
<path d="M203.938 373.848C193.68 371.333 152.039 362.158 141.701 360.451C141.621 360.451 141.611 360.451 141.701 360.51C151.819 363.223 193.53 372.063 203.918 374.006C204.118 374.055 204.118 373.898 203.938 373.848Z" fill="#263238"/>
<path d="M200.629 364.259C199.488 363.975 198.3 363.928 197.14 364.122C195.979 364.316 194.873 364.745 193.89 365.384C192.117 366.522 190.854 368.287 190.361 370.317C190.361 370.386 190.461 370.405 190.491 370.317C191.297 368.379 192.718 366.753 194.54 365.68C196.363 364.607 198.489 364.147 200.599 364.368C200.607 364.373 200.616 364.376 200.625 364.377C200.635 364.378 200.644 364.377 200.653 364.374C200.662 364.37 200.67 364.365 200.676 364.358C200.683 364.351 200.687 364.343 200.69 364.334C200.692 364.325 200.692 364.315 200.691 364.306C200.689 364.297 200.685 364.289 200.679 364.281C200.673 364.274 200.665 364.268 200.656 364.264C200.648 364.261 200.638 364.259 200.629 364.259Z" fill="#263238"/>
<path d="M184.662 351.227C180.543 350.24 175.434 350.655 172.115 353.427C171.985 353.536 172.115 353.713 172.275 353.674C176.308 352.588 180.447 351.927 184.622 351.701C184.671 351.685 184.715 351.656 184.747 351.616C184.78 351.576 184.799 351.528 184.804 351.477C184.808 351.426 184.797 351.375 184.771 351.331C184.746 351.286 184.708 351.25 184.662 351.227Z" fill="#263238"/>
<path d="M187.571 353.151C183.452 352.164 178.343 352.579 175.024 355.351C174.894 355.459 175.024 355.637 175.194 355.597C179.225 354.523 183.361 353.878 187.531 353.674C187.594 353.667 187.653 353.639 187.697 353.594C187.742 353.55 187.768 353.491 187.773 353.429C187.778 353.366 187.76 353.304 187.723 353.254C187.687 353.203 187.633 353.166 187.571 353.151Z" fill="#263238"/>
<path d="M190.491 355.075C186.372 354.088 181.253 354.502 177.944 357.275C177.814 357.383 177.944 357.561 178.103 357.531C182.132 356.435 186.268 355.774 190.441 355.558C190.49 355.542 190.534 355.512 190.566 355.472C190.599 355.432 190.619 355.383 190.624 355.332C190.63 355.281 190.62 355.23 190.596 355.184C190.573 355.138 190.536 355.1 190.491 355.075Z" fill="#263238"/>
<path d="M193.4 356.998C189.281 356.012 184.172 356.426 180.853 359.198C180.723 359.307 180.853 359.484 181.013 359.455C185.044 358.359 189.184 357.698 193.36 357.482C193.409 357.464 193.452 357.434 193.483 357.393C193.515 357.352 193.534 357.304 193.538 357.253C193.542 357.202 193.531 357.151 193.507 357.105C193.483 357.06 193.446 357.023 193.4 356.998Z" fill="#263238"/>
<path d="M182.782 351.375L140.421 340.977C140.421 340.977 178.303 258.907 175.234 254.793C173.704 252.731 134.162 251.666 121.705 240.981C105.528 227.111 116.706 206.344 116.706 206.344L160.927 205.535C160.927 205.535 160.287 214.651 161.997 216.042C163.116 216.969 215.696 221.961 221.265 239.551C228.113 261.156 182.782 351.375 182.782 351.375Z" fill="#263238"/>
<path d="M184.632 342.536C183.504 342.045 182.341 341.636 181.153 341.312C179.923 340.908 178.693 340.513 177.454 340.138C175.014 339.398 172.565 338.688 170.105 338.037C165.156 336.715 160.187 335.433 155.198 334.239C152.599 333.627 147.02 332.266 146.68 332.335C146.51 332.335 146.48 332.631 146.63 332.68C151.459 334.318 156.358 335.719 161.257 337.12C166.156 338.52 171.045 339.911 176.004 341.066C177.374 341.391 178.753 341.677 180.133 341.983C181.57 342.376 183.033 342.666 184.512 342.851C184.662 342.881 184.792 342.664 184.632 342.536Z" fill="#37474F"/>
<path d="M182.832 251.261C181.84 250.625 180.695 250.257 179.513 250.196L160.427 246.812C154.428 245.756 148.43 244.839 142.561 243.596C137.652 242.609 132.663 241.277 128.444 238.594C124.304 235.946 121.269 231.915 119.895 227.239C118.601 222.553 118.278 217.658 118.946 212.845C119.076 211.671 119.306 210.507 119.535 209.353C119.535 209.335 119.528 209.317 119.515 209.304C119.502 209.291 119.484 209.284 119.466 209.284C119.447 209.284 119.429 209.291 119.416 209.304C119.403 209.317 119.396 209.335 119.396 209.353C117.676 218.232 117.396 228.64 124.105 235.851C127.364 239.354 131.883 241.455 136.502 242.826C141.765 244.223 147.107 245.317 152.499 246.102C158.871 247.226 165.236 248.351 171.595 249.476C174.654 250.018 177.764 250.462 180.803 251.113C181.416 251.196 181.991 251.457 182.453 251.863C182.67 252.179 182.806 252.544 182.848 252.924C182.89 253.304 182.836 253.688 182.693 254.043C182.373 255.523 181.953 257.003 181.503 258.433C177.874 270.134 151.989 325.666 151.279 326.948C151.209 327.086 151.419 327.185 151.499 327.057C157.498 316.836 176.744 273.971 180.743 262.932C181.795 260.121 182.667 257.248 183.352 254.329C183.612 253.254 183.752 252.06 182.832 251.261Z" fill="#37474F"/>
<path d="M267.225 379.57C265.076 380.261 202.099 379.284 199.789 377.785C199.509 377.627 199.479 372.004 199.559 364.309V364.161C199.559 359.287 198.559 317.626 198.559 317.626L237.971 317.764L239.971 358.804C239.971 358.804 248.439 362.404 255.808 365.966C259.035 367.427 262.173 369.074 265.206 370.899C267.555 372.793 269.375 378.899 267.225 379.57Z" fill="#AD6359"/>
<path d="M267.225 379.57C265.076 380.251 202.098 379.284 199.779 377.785C199.509 377.627 199.479 372.003 199.559 364.309V363.125C199.559 362.878 199.559 362.631 199.559 362.385C199.559 362.138 199.559 361.645 199.559 361.27C199.559 358.034 199.419 352.776 199.289 347.015L239.441 347.222L240.001 358.804C240.001 358.804 248.459 362.404 255.827 365.966C259.052 367.426 262.187 369.073 265.215 370.899C267.545 372.793 269.375 378.899 267.225 379.57Z" fill="#EBEBEB"/>
<path d="M267.475 379.807C265.266 380.498 202.219 379.373 199.839 377.834C198.929 377.252 198.159 367.643 199.219 357.048L239.871 357.817C239.871 357.817 263.026 368.896 265.456 370.869C267.885 372.842 269.695 379.166 267.475 379.807Z" fill="#C7C7C7"/>
<path d="M266.625 377.301C256.057 376.857 213.406 376.048 202.928 376.403C202.838 376.403 202.838 376.463 202.928 376.473C213.386 377.133 256.047 377.607 266.615 377.459C266.845 377.469 266.845 377.311 266.625 377.301Z" fill="#263238"/>
<path d="M261.436 368.561C260.262 368.509 259.091 368.698 257.994 369.116C256.898 369.534 255.902 370.171 255.068 370.987C253.556 372.447 252.675 374.426 252.608 376.512C252.608 376.581 252.718 376.581 252.728 376.512C253.125 374.452 254.189 372.575 255.759 371.163C257.329 369.751 259.321 368.879 261.436 368.679C261.516 368.679 261.526 368.561 261.436 368.561Z" fill="#263238"/>
<path d="M243.16 358.922C238.931 358.794 234.002 360.175 231.312 363.549C231.213 363.677 231.392 363.825 231.522 363.756C235.257 361.907 239.182 360.458 243.23 359.435C243.286 359.413 243.334 359.374 243.364 359.322C243.395 359.271 243.407 359.211 243.399 359.151C243.391 359.092 243.363 359.037 243.32 358.996C243.276 358.954 243.22 358.928 243.16 358.922Z" fill="#263238"/>
<path d="M246.409 360.244C242.18 360.106 237.241 361.497 234.552 364.861C234.452 364.989 234.642 365.137 234.762 365.078C238.496 363.228 242.421 361.78 246.469 360.757C246.538 360.749 246.601 360.715 246.644 360.661C246.688 360.607 246.707 360.539 246.699 360.471C246.691 360.403 246.656 360.341 246.602 360.298C246.548 360.256 246.478 360.236 246.409 360.244Z" fill="#263238"/>
<path d="M249.649 361.556C245.42 361.418 240.491 362.809 237.801 366.173C237.691 366.301 237.881 366.449 238.011 366.39C241.741 364.538 245.663 363.09 249.709 362.069C249.778 362.061 249.841 362.027 249.884 361.973C249.927 361.919 249.947 361.851 249.939 361.783C249.931 361.715 249.896 361.653 249.841 361.61C249.787 361.568 249.718 361.548 249.649 361.556Z" fill="#263238"/>
<path d="M252.888 362.868C248.659 362.74 243.73 364.121 241.04 367.485C240.94 367.623 241.12 367.761 241.25 367.702C244.985 365.853 248.91 364.405 252.958 363.381C253.014 363.359 253.062 363.32 253.092 363.268C253.123 363.217 253.135 363.157 253.127 363.098C253.119 363.038 253.091 362.984 253.048 362.942C253.004 362.9 252.948 362.874 252.888 362.868Z" fill="#263238"/>
<path d="M241.88 357.797H198.519C198.519 357.797 199.239 277.71 195.81 273.271C191.241 267.352 126.244 266.73 112.537 247.453C100.219 230.13 111.087 205.959 111.087 205.959L160.317 205.101C159.147 210.295 157.559 215.388 155.568 220.333C155.568 220.333 214.726 231.826 231.123 249.929C242.19 262.182 241.88 357.797 241.88 357.797Z" fill="#263238"/>
<path d="M164.266 217.078C162.85 217.381 161.465 217.811 160.127 218.36C158.707 218.883 157.318 219.465 155.948 220.106C153.259 221.383 150.643 222.803 148.11 224.358C148.03 224.408 148.11 224.516 148.18 224.477C150.859 223.145 153.628 221.951 156.398 220.807L160.397 219.169C161.737 218.617 163.157 218.183 164.396 217.462C164.556 217.374 164.466 217.038 164.266 217.078Z" fill="#37474F"/>
<path d="M161.467 205.052C160.877 207.262 160.347 209.491 159.687 211.681C159.377 212.668 159.077 213.654 158.687 214.641C158.348 215.46 157.848 216.397 156.878 216.614C155.758 216.811 155.448 215.864 155.548 214.957C155.648 214.049 155.938 212.924 156.158 211.928C156.378 210.932 156.648 209.639 156.878 208.485C156.988 207.903 157.108 207.331 157.218 206.749C157.218 206.611 157.368 205.506 157.448 205.19C157.448 205.19 157.448 205.19 157.508 205.19C157.525 205.19 157.541 205.184 157.554 205.173C157.567 205.162 157.575 205.147 157.578 205.131C157.594 205.106 157.602 205.077 157.602 205.047C157.602 205.017 157.594 204.988 157.578 204.963C157.561 204.954 157.542 204.948 157.523 204.948C157.503 204.948 157.484 204.954 157.468 204.963C157.258 205.072 157.238 205.358 157.168 205.575C156.978 206.127 156.788 206.689 156.618 207.252C156.288 208.307 155.978 209.363 155.688 210.428L154.848 213.625C154.557 214.41 154.471 215.255 154.598 216.081C154.693 216.476 154.914 216.829 155.23 217.089C155.545 217.349 155.938 217.501 156.348 217.522C156.304 217.592 156.264 217.664 156.228 217.739C156.128 217.956 156.048 218.192 155.968 218.41C155.888 218.627 155.798 218.863 155.728 219.1C155.689 219.212 155.666 219.328 155.658 219.445C155.658 219.574 155.658 219.702 155.658 219.83C155.654 219.872 155.664 219.914 155.687 219.95C155.71 219.986 155.745 220.013 155.785 220.026C155.826 220.04 155.87 220.04 155.91 220.026C155.951 220.012 155.985 219.984 156.008 219.949C156.068 219.84 156.148 219.751 156.218 219.643C156.285 219.526 156.341 219.404 156.388 219.278C156.458 219.051 156.528 218.834 156.588 218.607C156.648 218.38 156.718 218.163 156.768 217.936C156.818 217.709 156.768 217.66 156.768 217.522C157.235 217.484 157.684 217.324 158.068 217.058C158.699 216.539 159.17 215.855 159.427 215.085C159.777 214.167 160.057 213.21 160.327 212.273C161.048 209.945 161.556 207.558 161.847 205.141C161.841 205.1 161.822 205.061 161.794 205.031C161.765 205 161.728 204.978 161.687 204.969C161.646 204.959 161.604 204.962 161.564 204.977C161.525 204.992 161.491 205.018 161.467 205.052Z" fill="#37474F"/>
<path d="M132.133 210.132C131.913 211.228 131.773 212.342 131.503 213.427C131.233 214.513 130.933 215.558 130.563 216.594C130.226 217.6 129.752 218.556 129.153 219.435C128.528 220.258 127.783 220.986 126.944 221.596C125.344 222.824 123.551 223.784 121.635 224.437C120.673 224.767 119.691 225.037 118.696 225.246C118.176 225.355 117.696 225.444 117.126 225.503C116.689 225.511 116.258 225.602 115.856 225.769C115.819 225.792 115.788 225.824 115.767 225.862C115.746 225.9 115.735 225.943 115.735 225.986C115.735 226.029 115.746 226.072 115.767 226.11C115.788 226.148 115.819 226.18 115.856 226.203C116.61 226.438 117.414 226.472 118.186 226.302C119.028 226.235 119.864 226.103 120.685 225.907C122.349 225.495 123.945 224.851 125.424 223.993C126.932 223.188 128.285 222.13 129.423 220.866C130.484 219.539 131.223 217.99 131.583 216.338C132.129 214.321 132.385 212.239 132.343 210.152C132.338 210.129 132.326 210.108 132.309 210.093C132.291 210.077 132.269 210.067 132.245 210.065C132.222 210.063 132.198 210.068 132.178 210.08C132.157 210.092 132.142 210.111 132.133 210.132Z" fill="#37474F"/>
<path d="M204.778 302.009C204.425 295.103 203.928 288.197 203.288 281.291C203.128 279.595 202.978 277.898 202.788 276.201C202.676 274.88 202.401 273.578 201.969 272.324C200.969 269.729 198.809 268.378 196.19 267.717C193.09 266.898 189.881 266.395 186.722 265.852C183.562 265.31 180.253 264.796 177.014 264.313C170.455 263.327 163.876 262.419 157.348 261.255C150.832 260.154 144.393 258.645 138.072 256.736C132.283 254.931 126.344 252.721 121.735 248.686C111.827 240.005 111.637 225.641 113.007 213.645C113.197 211.948 113.427 210.261 113.657 208.564C113.657 208.475 113.527 208.446 113.517 208.564C112.647 215.322 111.637 222.119 112.237 228.936C112.605 234.578 114.425 240.035 117.526 244.79C120.855 249.633 125.844 252.8 131.233 255.02C137.184 257.371 143.333 259.2 149.609 260.485C162.607 263.317 175.804 264.609 188.851 266.977C190.461 267.263 192.061 267.569 193.66 267.904C195.151 268.137 196.611 268.537 198.009 269.098C201.009 270.449 201.739 273.31 202.069 276.26C202.838 283.117 203.338 290.003 203.758 296.889C204.598 310.749 204.968 324.689 204.758 338.58L204.668 343.729C204.668 343.877 204.898 343.867 204.898 343.729C205.518 329.839 205.498 315.909 204.778 302.009Z" fill="#37474F"/>
<path d="M240.271 350.852C239.054 350.654 237.824 350.538 236.591 350.507C235.292 350.418 234.002 350.329 232.712 350.26C230.163 350.132 227.613 350.033 225.064 349.994C219.935 349.915 214.806 349.866 209.667 349.925C206.998 349.925 201.249 349.994 200.939 350.132C200.779 350.191 200.819 350.467 200.939 350.477C206.028 350.901 211.127 351.069 216.226 351.247C221.325 351.424 226.414 351.592 231.512 351.533C232.922 351.533 234.332 351.454 235.742 351.424C237.231 351.456 238.721 351.383 240.201 351.207C240.371 351.188 240.441 350.892 240.271 350.852Z" fill="#37474F"/>
<path d="M198.589 317.626C198.739 311.904 198.729 306.172 198.639 300.45C198.549 294.728 198.329 288.996 197.949 283.274C197.766 280.393 197.395 277.526 196.84 274.691C196.752 274.322 196.639 273.96 196.5 273.606C196.426 273.403 196.325 273.211 196.2 273.034C196.067 272.864 195.913 272.711 195.74 272.58C195.126 272.139 194.453 271.784 193.74 271.525C192.362 271.018 190.949 270.609 189.511 270.301C183.823 269.061 178.058 268.188 172.255 267.687C175.124 268.151 177.983 268.614 180.823 269.167C183.662 269.719 186.512 270.262 189.301 270.992C190.688 271.342 192.053 271.77 193.39 272.274C194.031 272.505 194.636 272.82 195.19 273.212C195.42 273.384 195.59 273.622 195.68 273.892C195.801 274.213 195.895 274.543 195.96 274.879C196.481 277.669 196.815 280.49 196.96 283.324C197.419 289.016 197.629 294.738 197.889 300.45L198.589 317.626Z" fill="#37474F"/>
<path d="M221.924 242.678C216.977 239.591 211.773 236.925 206.368 234.707C200.989 232.418 195.48 230.455 189.931 228.61C184.382 226.765 178.743 225.266 173.124 223.786C167.506 222.306 161.747 221.103 156.018 219.988C158.827 220.767 161.677 221.428 164.486 222.218C167.296 223.007 170.125 223.707 172.925 224.506C178.533 226.085 184.142 227.693 189.661 229.538C195.18 231.382 200.659 233.267 206.118 235.388C208.827 236.453 211.507 237.578 214.116 238.791C216.725 240.005 219.375 241.268 221.924 242.678Z" fill="#37474F"/>
<path d="M151.409 159.237C155.238 177.478 163.296 200.672 169.805 205.437C175.054 209.284 202.878 216.476 204.428 216.673C208.287 217.137 216.606 189.908 212.516 189.208C207.117 188.281 183.522 186.475 182.213 185.074C180.903 183.674 172.365 171.756 162.787 158.043C156.128 148.573 149.029 147.912 151.409 159.237Z" fill="#AD6359"/>
<path d="M201.369 215.124C204.888 217.003 208.54 218.629 212.296 219.988C215.296 220.915 223.974 223.342 225.294 220.195C226.224 218.044 221.295 216.022 217.825 214.513C216.006 213.714 213.776 211.77 214.346 210.567C215.346 208.544 220.025 210.695 223.104 212.54C229.103 216.111 236.941 222.504 240.681 219.564C242.1 218.449 240.531 216.348 238.211 214.256C241.99 216.713 246.039 218.745 247.659 217.571C248.079 217.273 248.366 216.826 248.46 216.324C248.553 215.822 248.445 215.303 248.159 214.878C248.641 215.116 249.185 215.206 249.72 215.136C250.255 215.066 250.756 214.838 251.158 214.483C252.438 213.22 251.868 211.306 250.549 209.333C250.783 209.313 251.01 209.238 251.21 209.115C251.41 208.991 251.577 208.823 251.698 208.623C254.418 204.677 241.46 193.036 236.921 191.852C223.554 188.419 209.237 189.267 209.237 189.267C203.878 193.391 201.359 215.114 201.369 215.124Z" fill="#AD6359"/>
<path d="M221.385 203.335C224.573 203.9 227.602 205.127 230.273 206.936C233.632 209.225 235.832 211.869 238.641 214.542C238.711 214.611 238.641 214.73 238.531 214.661C237.191 213.388 231.652 208.593 230.223 207.498C227.629 205.483 224.602 204.08 221.375 203.394C221.375 203.394 221.355 203.335 221.385 203.335Z" fill="#263238"/>
<path d="M224.014 197.771C227.586 198.693 231.053 199.972 234.362 201.589C237.911 203.473 240.651 206.472 243.36 209.363C244.98 211.089 246.569 212.865 248.109 214.671C248.169 214.74 248.109 214.858 247.999 214.779C245.26 211.8 242.434 208.903 239.521 206.088C236.833 203.456 233.642 201.377 230.133 199.971C228.133 199.162 226.064 198.511 224.004 197.87C223.964 197.82 223.974 197.751 224.014 197.771Z" fill="#263238"/>
<path d="M227.893 192.927C231.312 193.697 234.292 194.358 237.291 196.232C240.651 198.54 243.704 201.255 246.379 204.312C247.849 205.93 249.269 207.587 250.658 209.245C250.708 209.314 250.589 209.412 250.539 209.343C247.352 205.648 243.929 202.159 240.291 198.896C238.58 197.32 236.634 196.013 234.522 195.019C232.374 194.131 230.153 193.428 227.883 192.917C227.883 192.917 227.873 192.927 227.893 192.927Z" fill="#263238"/>
<path d="M210.917 188.212L200.229 217.374C200.229 217.374 170.915 208.84 167.036 203.819C163.157 198.797 153.399 173.581 151.299 160.076C149.199 146.57 156.038 149.303 161.867 156.208C167.696 163.114 182.273 184.196 182.772 184.522C183.272 184.848 210.917 188.212 210.917 188.212Z" fill="#DFFF24"/>
<path d="M195.77 210.468C196.16 209.481 196.59 208.495 196.96 207.508C197.733 205.469 198.499 203.427 199.259 201.382C200.029 199.34 200.779 197.288 201.529 195.236C202.278 193.184 202.928 191.082 203.698 189.04C203.7 189.024 203.696 189.007 203.687 188.993C203.679 188.978 203.666 188.967 203.65 188.96C203.634 188.954 203.617 188.952 203.601 188.956C203.584 188.96 203.569 188.969 203.558 188.981C202.688 190.954 201.749 192.927 200.899 194.969C200.049 197.012 199.229 199.093 198.449 201.175C197.669 203.256 196.95 205.279 196.24 207.341C195.89 208.327 195.61 209.442 195.24 210.488C194.87 211.533 194.58 212.461 194.34 213.536C194.34 213.552 194.346 213.567 194.358 213.578C194.369 213.589 194.384 213.595 194.4 213.595C194.416 213.595 194.431 213.589 194.442 213.578C194.454 213.567 194.46 213.552 194.46 213.536C194.98 212.579 195.35 211.504 195.77 210.468Z" fill="#263238"/>
<path d="M187.452 213.28C179.033 210.389 169.175 206.551 167.036 203.779C163.157 198.758 153.399 173.552 151.299 160.046C150.299 153.633 151.299 150.891 153.299 150.526L187.452 213.28Z" fill="#263238"/>
<path d="M167.276 215.618C165.896 216.949 106.618 223.036 106.288 222.642C105.508 221.586 116.586 166.695 140.281 147.783C144.46 144.449 151.439 145.81 154.598 147.852C156.178 148.839 160.597 156.731 161.797 163.745C162.997 170.76 168.125 214.779 167.276 215.618Z" fill="#DFFF24"/>
<path d="M134.792 151.749C122.795 161.615 91.8512 199.981 98.9997 208.692C106.148 217.403 152.599 212.638 165.986 208.219C169.985 206.906 158.597 181.937 154.228 180.852C150.599 179.944 130.653 186.13 130.233 184.986C129.813 183.841 135.042 176.462 141.631 160.855C149.299 142.851 140.071 147.399 134.792 151.749Z" fill="#AD6359"/>
<path d="M173.964 175.683C183.292 175.554 185.702 176.935 193.52 172.723C198.639 169.941 202.638 171.983 199.279 176.985C193.79 185.173 181.793 187.837 177.364 187.56L173.964 175.683Z" fill="#AD6359"/>
<path d="M148.52 181.375C148.52 181.375 159.517 177.005 169.455 175.9C176.314 175.14 191.451 175.12 203.838 191.369C206.778 195.216 208.197 202.763 201.079 198.195C196.02 194.95 193.81 191.378 190.511 190.017C190.511 190.017 191.171 199.833 187.142 202.585C183.628 204.994 179.947 207.153 176.124 209.047C175.61 208.439 175.139 207.796 174.714 207.124C174.714 207.124 170.715 209.343 163.876 207.844L148.52 181.375Z" fill="#AD6359"/>
<path d="M176.124 176.205C179.123 178.238 185.332 182.648 189.121 188.044C193.38 193.963 199.939 206.591 195.46 209.649C192.171 211.888 189.231 207.291 189.231 207.291C189.231 207.291 190.831 213.062 187.412 214.444C184.302 215.706 182.243 212.017 182.243 212.017C182.243 212.017 182.603 215.687 179.363 216.328C175.474 217.097 175.364 209.284 170.725 206.709C169.725 206.088 176.124 176.205 176.124 176.205Z" fill="#AD6359"/>
<path d="M182.043 191.388C186.036 195.778 188.581 201.263 189.341 207.114C189.341 207.272 189.241 207.36 189.201 207.222C187.451 201.692 185.027 196.392 181.983 191.438C181.983 191.438 182.013 191.369 182.043 191.388Z" fill="#263238"/>
<path d="M176.124 195.798C178.053 198.057 182.123 205.259 182.463 211.928C182.463 212.076 182.353 212.165 182.323 212.027C180.866 206.413 178.767 200.982 176.064 195.838C176.064 195.838 176.054 195.768 176.124 195.798Z" fill="#263238"/>
<path d="M190.521 189.958C193.4 191.191 195.16 192.917 197.459 194.89C198.586 195.912 199.768 196.874 200.999 197.771C202.139 198.57 203.808 199.744 205.228 198.916C205.565 198.65 205.824 198.301 205.981 197.904C206.137 197.507 206.184 197.077 206.118 196.656C206.062 195.718 205.803 194.803 205.358 193.973C205.358 193.973 205.358 193.894 205.438 193.973C205.883 194.697 206.22 195.482 206.438 196.301C206.677 197.063 206.677 197.878 206.438 198.639C205.798 200.208 203.828 200.188 202.508 199.567C201.726 199.17 200.986 198.697 200.299 198.156C199.629 197.653 198.979 197.12 198.299 196.577C197 195.453 195.76 194.259 194.48 193.125C193.211 192.056 191.875 191.068 190.481 190.165C190.411 190.017 190.471 189.938 190.521 189.958Z" fill="#263238"/>
<path d="M195.46 201.096C194.042 197.299 192.372 193.598 190.461 190.017C190.461 190.017 190.461 189.928 190.531 189.968C192.53 192.434 195.59 198.679 196.23 200.642C197.021 202.696 197.382 204.888 197.29 207.084C196.9 210.162 194.76 210.488 193.98 210.547C193.048 210.596 192.127 210.328 191.371 209.787C190.497 209.097 189.776 208.237 189.251 207.262C189.251 207.212 189.251 207.163 189.321 207.212C190.251 208.554 191.891 209.975 193.61 209.965C193.991 209.975 194.37 209.91 194.725 209.775C195.08 209.639 195.405 209.436 195.68 209.176C196.23 208.489 196.516 207.633 196.49 206.759C196.478 204.827 196.129 202.911 195.46 201.096Z" fill="#263238"/>
<path d="M182.413 211.928C182.802 212.352 183.532 213.743 184.922 214.187C185.408 214.382 185.935 214.458 186.457 214.408C186.98 214.358 187.482 214.184 187.921 213.901C188.745 213.24 189.276 212.288 189.401 211.247C189.445 209.93 189.388 208.61 189.231 207.301C189.231 207.232 189.301 207.212 189.321 207.301C189.668 208.704 189.803 210.15 189.721 211.593C189.676 212.166 189.513 212.724 189.241 213.233C188.969 213.742 188.595 214.191 188.141 214.552C187.662 214.897 187.096 215.104 186.505 215.151C185.914 215.198 185.321 215.083 184.792 214.819C183.701 214.155 182.826 213.196 182.273 212.056C182.273 212.056 182.393 211.908 182.413 211.928Z" fill="#263238"/>
<path d="M167.126 208.327C168.855 208.353 170.583 208.215 172.285 207.913C172.285 207.913 172.395 208.061 172.345 208.08C171.502 208.34 170.634 208.509 169.755 208.584C168.875 208.651 167.99 208.595 167.126 208.416C167.126 208.406 167.126 208.317 167.126 208.327Z" fill="#263238"/>
<path d="M146.98 181.049L159.657 211.158C159.657 211.158 101.529 219.623 97.61 207.676C93.6908 195.729 122.605 161.536 133.353 152.341C144.1 143.147 146.98 148 143.491 157.353C140.001 166.705 131.023 184.66 131.273 184.66C131.523 184.66 146.98 181.049 146.98 181.049Z" fill="#DFFF24"/>
<path d="M147.01 181C142.064 181.711 137.192 182.856 132.453 184.423C127.69 185.897 123.016 187.639 118.456 189.642C115.836 190.806 113.307 192.089 110.747 193.371C110.657 193.421 110.747 193.539 110.837 193.499C113.147 192.454 115.526 191.526 117.886 190.619C120.245 189.711 122.505 188.843 124.884 188.014C129.55 186.357 134.279 184.877 139.071 183.575C141.761 182.845 144.46 182.144 147.13 181.355C147.25 181.296 147.22 180.97 147.01 181Z" fill="#263238"/>
<path d="M148.709 206.887C148.37 205.9 148.07 204.914 147.71 203.927L145.48 197.771C144.73 195.719 143.98 193.667 143.201 191.625C142.421 189.583 141.581 187.56 140.841 185.508C140.846 185.497 140.847 185.484 140.845 185.471C140.844 185.458 140.839 185.446 140.832 185.436C140.824 185.426 140.815 185.417 140.803 185.411C140.792 185.405 140.779 185.402 140.766 185.402C140.753 185.402 140.741 185.405 140.729 185.411C140.718 185.417 140.708 185.426 140.7 185.436C140.693 185.446 140.688 185.458 140.687 185.471C140.685 185.484 140.687 185.497 140.691 185.508C141.331 187.59 141.891 189.701 142.561 191.783C143.231 193.864 143.96 195.995 144.72 198.087C145.48 200.178 146.24 202.181 147.05 204.213C147.45 205.2 147.92 206.186 148.36 207.232C148.799 208.278 149.169 209.205 149.659 210.192C149.659 210.251 149.789 210.192 149.769 210.142C149.479 209.008 149.069 207.962 148.709 206.887Z" fill="#263238"/>
<path d="M160.187 211.602C160.017 211.129 159.857 210.616 159.697 210.182C159.637 210.024 159.357 210.044 159.387 210.182L159.567 211.375C156.278 211.543 153.009 212.036 149.729 212.362C146.45 212.688 142.941 213.003 139.531 213.24C132.823 213.684 126.094 213.852 119.366 213.684C115.516 213.585 111.687 213.319 107.848 213.151C107.824 213.151 107.801 213.161 107.784 213.177C107.767 213.194 107.758 213.216 107.758 213.24C107.758 213.264 107.767 213.286 107.784 213.303C107.801 213.319 107.824 213.329 107.848 213.329C114.598 214.349 121.43 214.736 128.254 214.483C135.072 214.384 141.881 213.921 148.669 213.289C152.471 213.027 156.255 212.566 160.007 211.908C160.067 211.883 160.116 211.84 160.149 211.785C160.181 211.73 160.194 211.666 160.187 211.602Z" fill="#263238"/>
<path d="M138.432 171.687C137.882 172.417 137.332 173.147 136.852 173.917L136.542 174.449C137.392 172.417 138.182 170.355 138.991 168.303C138.991 168.234 138.911 168.195 138.891 168.303C137.432 171.214 135.892 174.084 134.552 177.044C133.883 178.484 133.233 179.935 132.553 181.375C132.213 182.125 131.873 182.865 131.553 183.614C131.203 184.244 130.967 184.928 130.853 185.637C130.853 185.706 130.943 185.726 130.993 185.686C131.495 185.133 131.892 184.495 132.163 183.802C132.533 183.072 132.883 182.342 133.243 181.612C133.963 180.152 134.662 178.682 135.342 177.202C135.512 176.837 135.672 176.462 135.832 176.097C136.282 175.466 136.722 174.834 137.142 174.193C137.562 173.552 138.072 172.605 138.492 171.796C138.542 171.697 138.472 171.638 138.432 171.687Z" fill="#263238"/>
<path d="M153.129 158.645C149.629 158.833 144.79 152.775 143.251 148.286C143.151 147.981 146.36 136.971 146.76 134.722C146.84 134.258 160.447 140.641 160.447 140.641C159.123 143.307 158.136 146.123 157.508 149.026C157.498 149.372 156.538 158.458 153.129 158.645Z" fill="#AD6359"/>
<path d="M160.497 140.651C160.497 140.72 160.327 140.976 160.137 141.4C159.807 142.121 159.277 143.295 158.787 144.656C158.253 146.076 157.841 147.538 157.558 149.026C157.558 149.135 157.558 149.243 157.558 149.342C157.558 149.529 157.498 149.776 157.458 150.072C156.985 150.046 156.514 149.99 156.048 149.904C148.3 148.355 147.38 138.47 147.31 134.731L147.55 134.82C147.92 134.939 148.39 135.126 148.969 135.363L149.409 135.55C150.319 135.935 151.409 136.418 152.539 136.912L153.658 137.415L156.038 138.5C156.358 138.658 156.688 138.806 157.038 138.934L158.038 139.378C158.184 139.455 158.334 139.524 158.487 139.585L158.687 139.684L159.817 140.217L160.357 140.463L160.587 140.572L160.497 140.651Z" fill="#263238"/>
<path d="M148.709 117.733C145.94 122.281 144.98 137.158 147.71 141.213C151.709 147.073 160.027 149.589 165.536 144.459C170.875 139.526 171.775 120.081 168.535 116.214C163.786 110.522 152.809 111.005 148.709 117.733Z" fill="#AD6359"/>
<path d="M160.717 129.572C160.717 129.572 160.627 129.572 160.627 129.651C160.627 130.637 160.437 131.811 159.507 132.107V132.166C160.647 132.009 160.867 130.479 160.717 129.572Z" fill="#263238"/>
<path d="M159.847 128.447C158.218 128.26 157.958 131.496 159.467 131.663C160.977 131.831 161.217 128.585 159.847 128.447Z" fill="#263238"/>
<path d="M166.576 130.154C166.576 130.154 166.656 130.154 166.646 130.243C166.536 131.229 166.576 132.403 167.466 132.808C167.466 132.808 167.466 132.877 167.466 132.867C166.346 132.62 166.306 131.081 166.576 130.154Z" fill="#263238"/>
<path d="M167.566 129.177C169.205 129.177 169.075 132.423 167.566 132.413C166.056 132.403 166.186 129.167 167.566 129.177Z" fill="#263238"/>
<path d="M159.127 126.997C159.571 127.074 160.018 127.127 160.467 127.155C160.932 127.277 161.424 127.242 161.867 127.056C161.995 126.974 162.092 126.851 162.141 126.708C162.19 126.565 162.188 126.409 162.137 126.267C161.996 125.997 161.784 125.77 161.524 125.609C161.264 125.448 160.964 125.358 160.657 125.349C160.039 125.235 159.4 125.355 158.867 125.685C158.749 125.766 158.658 125.879 158.604 126.01C158.55 126.141 158.536 126.286 158.563 126.425C158.591 126.564 158.659 126.692 158.759 126.794C158.859 126.895 158.987 126.966 159.127 126.997Z" fill="#263238"/>
<path d="M169.125 127.194C168.69 127.075 168.263 126.93 167.846 126.76C167.372 126.671 166.943 126.428 166.626 126.07C166.55 125.939 166.519 125.787 166.539 125.637C166.559 125.487 166.628 125.348 166.736 125.241C166.983 125.061 167.274 124.949 167.58 124.916C167.886 124.883 168.195 124.93 168.475 125.053C169.08 125.221 169.6 125.605 169.935 126.129C170.009 126.251 170.044 126.393 170.037 126.535C170.029 126.678 169.979 126.815 169.892 126.929C169.805 127.043 169.686 127.129 169.549 127.177C169.413 127.224 169.265 127.23 169.125 127.194Z" fill="#263238"/>
<path d="M159.027 138.756C159.257 139.003 159.467 139.348 159.837 139.408C160.215 139.431 160.594 139.374 160.947 139.24C160.947 139.24 161.017 139.24 160.947 139.299C160.785 139.482 160.576 139.619 160.342 139.695C160.108 139.771 159.858 139.785 159.617 139.733C159.408 139.662 159.225 139.53 159.095 139.353C158.964 139.177 158.892 138.965 158.887 138.747C158.917 138.727 158.997 138.717 159.027 138.756Z" fill="#263238"/>
<path d="M160.337 135.836C160.564 136.253 160.875 136.619 161.252 136.911C161.629 137.203 162.063 137.415 162.527 137.533C162.93 137.642 163.348 137.692 163.766 137.681H164.006H164.226C164.281 137.675 164.332 137.652 164.372 137.614C164.412 137.577 164.438 137.528 164.446 137.474C164.451 137.441 164.451 137.408 164.446 137.375V137.287C164.526 136.517 164.546 135.313 164.546 135.313C164.816 135.481 166.226 136.241 166.236 135.836C166.417 132.352 166.243 128.859 165.716 125.409C165.709 125.389 165.697 125.372 165.68 125.36C165.663 125.347 165.642 125.341 165.621 125.341C165.6 125.341 165.579 125.347 165.562 125.36C165.545 125.372 165.533 125.389 165.526 125.409C165.336 128.625 165.716 131.861 165.576 135.096C165.077 134.82 164.542 134.611 163.986 134.475C163.876 134.475 163.986 136.754 163.926 137.099C163.282 137.111 162.641 136.996 162.042 136.76C161.443 136.525 160.897 136.174 160.437 135.728C160.367 135.688 160.287 135.748 160.337 135.836Z" fill="#263238"/>
<path d="M147.67 128.25C151.099 128.773 152.729 122.735 152.729 122.735C152.729 122.735 158.727 122.735 160.297 118.454C160.297 118.454 165.296 122.834 169.955 121.936C174.614 121.038 174.834 115.563 174.494 114.448C173.734 111.883 169.605 114.389 169.605 114.389C166.328 111.844 162.379 110.282 158.228 109.89C153.039 109.604 149.729 113.955 149.729 113.955C149.729 113.955 146.9 114.103 145.73 115.869C144.56 117.635 145.49 127.924 147.67 128.25Z" fill="#263238"/>
<path d="M151.339 122.567C155.788 123.86 159.277 121.344 160.617 117.151H160.697C159.937 121.097 155.438 125.044 151.259 122.745C151.246 122.729 151.238 122.711 151.235 122.691C151.232 122.671 151.235 122.65 151.243 122.632C151.252 122.613 151.265 122.597 151.282 122.586C151.299 122.575 151.319 122.568 151.339 122.567Z" fill="#263238"/>
<path d="M149.869 113.896C149.869 113.896 149.939 113.975 149.869 113.985C148.51 114.369 146.98 114.586 145.87 115.593C144.57 116.806 144.51 118.651 144.67 120.288C144.91 122.814 145.67 126.208 147.67 127.944C147.79 128.043 147.62 128.21 147.51 128.112C145.11 126.139 144.22 121.827 144.3 118.907C144.44 115.632 146.75 114.123 149.869 113.896Z" fill="#263238"/>
<path d="M165.126 120.387C166.07 121.207 167.24 121.73 168.487 121.89C169.733 122.05 171 121.839 172.125 121.285C174.814 119.845 174.794 116.806 174.124 114.192C174.124 114.063 174.284 113.955 174.334 114.083C175.394 116.461 174.974 119.776 172.705 121.354C171.497 122.079 170.086 122.402 168.678 122.276C167.271 122.15 165.942 121.581 164.886 120.654C164.696 120.506 164.936 120.239 165.126 120.387Z" fill="#263238"/>
<path d="M157.718 135.274C156.852 135.098 156.054 134.685 155.415 134.083C154.776 133.482 154.32 132.715 154.101 131.87C153.881 131.026 153.907 130.137 154.174 129.306C154.441 128.475 154.939 127.734 155.612 127.169C156.285 126.604 157.105 126.236 157.979 126.108C158.853 125.98 159.746 126.096 160.556 126.444C161.366 126.792 162.061 127.358 162.561 128.077C163.062 128.795 163.348 129.638 163.386 130.509C163.443 131.743 163.001 132.948 162.158 133.86C161.314 134.772 160.138 135.316 158.887 135.373C158.495 135.39 158.102 135.357 157.718 135.274ZM159.507 126.77C159.178 126.705 158.843 126.678 158.507 126.691C157.47 126.736 156.489 127.169 155.764 127.902C155.039 128.636 154.625 129.615 154.606 130.639C154.587 131.664 154.965 132.657 155.662 133.416C156.36 134.175 157.324 134.643 158.359 134.725C159.394 134.806 160.422 134.495 161.233 133.855C162.044 133.215 162.577 132.294 162.723 131.28C162.869 130.266 162.618 129.234 162.021 128.396C161.423 127.558 160.524 126.977 159.507 126.77Z" fill="#455A64"/>
<path d="M168.505 136.152C166.746 135.797 165.506 133.676 165.726 131.219C165.813 130.062 166.26 128.96 167.006 128.062C167.314 127.677 167.715 127.373 168.172 127.178C168.629 126.983 169.128 126.903 169.624 126.947C170.12 126.99 170.597 127.154 171.013 127.424C171.429 127.695 171.769 128.063 172.005 128.497C172.584 129.509 172.828 130.675 172.705 131.831C172.475 134.386 170.705 136.33 168.795 136.162L168.505 136.152ZM169.825 127.599H169.585C169.18 127.583 168.778 127.665 168.412 127.836C168.046 128.008 167.728 128.265 167.486 128.585C166.822 129.38 166.427 130.36 166.356 131.387C166.166 133.597 167.286 135.511 168.875 135.649C170.465 135.787 171.875 134.09 172.095 131.88C172.21 130.855 171.997 129.82 171.485 128.921C171.317 128.599 171.082 128.315 170.796 128.087C170.511 127.859 170.18 127.693 169.825 127.599Z" fill="#455A64"/>
<path d="M163.186 131.032L162.827 130.529C163.586 129.996 165.306 129.345 166.346 130.657L165.846 131.042C164.916 129.858 163.256 130.983 163.186 131.032Z" fill="#455A64"/>
<path d="M142.131 130.42L141.601 130.085C141.761 129.838 143.181 127.688 144.6 127.579C146.02 127.471 154.278 129 154.598 129.059L154.478 129.67C152.089 129.236 145.63 128.131 144.61 128.201C143.591 128.27 142.521 129.828 142.131 130.42Z" fill="#455A64"/>
<path d="M149.009 130.105C149.009 130.105 146.79 124.738 144.4 125.409C142.011 126.079 142.921 133.301 145.21 134.82C145.49 135.03 145.811 135.182 146.152 135.266C146.493 135.35 146.848 135.366 147.196 135.312C147.543 135.257 147.876 135.134 148.174 134.95C148.472 134.765 148.729 134.523 148.929 134.238L149.009 130.105Z" fill="#AD6359"/>
<path d="M144.71 127.49C144.71 127.49 144.65 127.49 144.71 127.549C146.3 128.644 146.85 130.45 147.11 132.255C147.047 132.061 146.943 131.882 146.805 131.731C146.666 131.581 146.496 131.461 146.306 131.38C146.117 131.3 145.912 131.261 145.705 131.265C145.499 131.27 145.296 131.318 145.11 131.407C145.11 131.407 145.11 131.505 145.11 131.515C145.439 131.488 145.768 131.561 146.052 131.726C146.337 131.89 146.563 132.137 146.7 132.433C146.924 132.934 147.094 133.456 147.21 133.991C147.21 134.169 147.56 134.149 147.54 133.991C148.13 131.722 147.06 128.25 144.71 127.49Z" fill="#263238"/>
<path d="M157.428 150.289L152.639 158.181L143.78 145.85L140.221 148.809C140.221 148.809 147.82 167.366 148.01 166.616L152.709 159.918L156.958 165.768L158.617 153.042L157.428 150.289Z" fill="#EBEBEB"/>
<path d="M158.127 159.434C158.327 157.323 158.597 155.202 158.697 153.081C158.697 153.012 158.587 152.953 158.557 153.081C157.798 155.054 157.078 163.104 156.748 165.018C156.568 164.762 152.749 159.829 152.749 159.888C151.749 160.924 148.36 165.807 148.11 166.241C146.91 163.282 142.211 152.538 140.691 149.687C140.691 149.608 140.521 149.687 140.551 149.687C141.551 152.755 147.7 167.228 147.84 167.208C149.602 164.933 151.244 162.568 152.759 160.125C153.368 161.171 157.128 166.646 157.198 166.34C157.627 164.055 157.938 161.75 158.127 159.434Z" fill="#263238"/>
<path d="M43.1511 252.642C43.7966 257.06 43.5656 261.56 42.4713 265.892C41.9579 267.9 41.2688 269.861 40.4117 271.752C39.3419 274.178 38.2321 276.546 38.4921 279.2C38.752 279.368 37.8622 279.338 37.8322 279.082C30.6537 275.047 21.4356 274.307 15.9067 267.707C13.4119 264.492 11.8343 260.677 11.3377 256.658C10.5184 252.239 10.6068 247.704 11.5976 243.32C12.5974 239.719 14.677 236.246 18.1063 234.49C21.5356 232.734 26.2746 232.823 29.9938 233.967C38.0122 236.424 42.0014 244.997 43.1511 252.642Z" fill="#DFFF24"/>
<path d="M46.8303 305.175C45.8306 301.949 44.8308 298.724 43.831 295.507C41.8314 289.203 39.8318 282.929 37.5423 276.763C36.2092 273.041 34.7762 269.361 33.2431 265.724C33.4253 263.405 33.729 261.096 34.153 258.808C34.7528 256.066 35.6227 253.402 36.4325 250.719C36.4325 250.551 36.2125 250.462 36.1425 250.62C34.5329 254.329 32.4233 259.065 32.3733 263.445C30.627 259.321 28.7441 255.257 26.7245 251.251C26.4964 247.862 26.6035 244.459 27.0444 241.09C27.0444 240.932 26.8245 240.893 26.8045 241.09C26.1922 244.039 25.9538 247.051 26.0946 250.058C24.5549 247.052 22.9219 244.092 21.1956 241.179C21.0356 240.922 20.6657 241.179 20.8057 241.445C23.5051 246.575 26.0146 251.814 28.3641 257.121C25.0533 254.295 21.2301 252.112 17.0965 250.689C16.9165 250.62 16.7765 250.876 16.9665 250.955C21.472 252.833 25.5998 255.493 29.154 258.808C30.8403 262.695 32.4533 266.612 33.993 270.558C29.4939 266.207 23.3352 263.346 17.3864 261.817C17.1864 261.758 17.1364 262.074 17.3264 262.123C24.215 264.175 29.5639 268.042 34.8028 272.659C35.4094 274.251 36.0059 275.849 36.5925 277.454C38.812 283.531 40.9249 289.644 42.9311 295.793C43.8976 298.733 44.8474 301.693 45.7806 304.672C46.7804 307.849 47.5802 311.203 48.8799 314.281C49.0099 314.567 49.5398 314.508 49.4698 314.153C48.7482 311.117 47.8672 308.121 46.8303 305.175Z" fill="#263238"/>
<path d="M34.9128 246.437C33.6333 248.369 32.7533 250.532 32.3233 252.8C32.3233 252.859 32.4033 252.889 32.4233 252.8C33.2257 250.662 34.1641 248.577 35.2327 246.555C35.3427 246.378 35.0328 246.25 34.9128 246.437Z" fill="#263238"/>
<path d="M22.0954 261.205C20.0946 260.113 17.9097 259.388 15.6468 259.065C15.5868 259.065 15.5468 259.144 15.6468 259.163C16.6466 259.588 17.7763 259.884 18.8261 260.288C19.8759 260.692 20.9057 261.166 21.9655 261.531C22.0039 261.531 22.0415 261.52 22.0733 261.499C22.1051 261.478 22.1297 261.448 22.1438 261.412C22.1578 261.377 22.1608 261.338 22.1521 261.301C22.1435 261.265 22.1237 261.231 22.0954 261.205Z" fill="#263238"/>
<path d="M18.4762 243.438C17.8304 242.95 17.1371 242.527 16.4066 242.175C16.383 242.165 16.3566 242.164 16.3319 242.171C16.3073 242.178 16.286 242.194 16.2718 242.215C16.2575 242.236 16.2512 242.261 16.2539 242.286C16.2566 242.312 16.2682 242.335 16.2866 242.353C16.9118 242.849 17.581 243.288 18.2862 243.665C18.4662 243.744 18.6062 243.517 18.4762 243.438Z" fill="#263238"/>
<path d="M67.3661 276.724C62.1872 278.233 56.9882 279.634 51.8093 281.134C51.3594 281.272 42.6112 264.727 45.8105 256.204C47.3163 252.341 49.6763 248.859 52.7187 246.011C55.761 243.162 59.409 241.02 63.3969 239.738C67.0962 238.495 71.6352 237.46 75.5344 238.308C77.2006 238.75 78.7242 239.606 79.9599 240.794C81.1956 241.982 82.1021 243.463 82.593 245.095C84.1227 249.466 83.5928 254.694 82.7729 259.163C82.1066 263.365 80.3424 267.323 77.654 270.647C74.9046 273.863 71.3953 275.579 67.3661 276.724Z" fill="#DFFF24"/>
<path d="M74.8646 260.998C71.5931 262.577 68.1998 263.896 64.7167 264.944C62.3953 265.56 60.131 266.369 57.9481 267.361C60.1476 262.557 62.5271 257.822 65.0766 253.185C68.5333 252.321 71.7421 250.684 74.4547 248.4C74.5947 248.282 74.4547 248.085 74.2647 248.193C71.4808 249.955 68.5147 251.42 65.4165 252.563C66.1064 251.311 66.7963 250.058 67.5061 248.805C67.7061 248.459 67.2162 248.114 66.9862 248.45C64.2651 252.347 61.807 256.417 59.6277 260.633C59.0925 256.939 58.9317 253.201 59.1478 249.476C59.1478 249.377 59.0179 249.367 58.9979 249.476C58.3311 253.549 58.3582 257.703 59.0778 261.768C57.2582 265.349 55.6086 269.009 54.0789 272.718C53.489 270.489 52.7292 268.289 52.2093 266.049C51.4264 262.822 51.1766 259.49 51.4694 256.184C51.4694 256.095 51.3394 256.085 51.3194 256.184C50.4054 262.282 51.1542 268.51 53.489 274.228C52.6292 276.467 51.7993 278.707 51.0495 280.946C47.1469 292.398 44.8363 304.318 44.1809 316.383C44.1916 316.431 44.2187 316.474 44.2578 316.505C44.2969 316.537 44.3456 316.554 44.3959 316.554C44.4461 316.554 44.4948 316.537 44.5339 316.505C44.573 316.474 44.6002 316.431 44.6108 316.383C45.9657 304.482 48.552 292.75 52.3292 281.37C53.8289 276.911 55.5586 272.59 57.4482 268.348C60.5076 267.46 63.5469 266.247 66.5563 265.221C69.5603 264.336 72.3949 262.966 74.9446 261.166C74.955 261.151 74.9612 261.133 74.9625 261.114C74.9639 261.095 74.9604 261.077 74.9523 261.06C74.9443 261.043 74.932 261.029 74.9167 261.018C74.9013 261.007 74.8834 261 74.8646 260.998Z" fill="#263238"/>
<path d="M79.6936 256.194C76.5243 257.309 73.5249 258.858 70.3655 259.992C70.2156 260.041 70.3055 260.268 70.4555 260.239C73.8457 259.715 77.0567 258.388 79.8136 256.371C79.9136 256.293 79.8036 256.154 79.6936 256.194Z" fill="#263238"/>
<path d="M53.8489 249.456C53.8489 249.288 53.639 249.199 53.589 249.367C52.7192 252.248 52.1193 255.286 52.9691 258.246C52.9691 258.275 52.9807 258.302 53.0013 258.323C53.0219 258.343 53.0499 258.354 53.0791 258.354C53.1082 258.354 53.1362 258.343 53.1568 258.323C53.1775 258.302 53.1891 258.275 53.1891 258.246C53.339 255.267 53.1491 252.376 53.8489 249.456Z" fill="#263238"/>
<path d="M66.9262 242.807C65.9086 244.247 65.4249 245.989 65.5565 247.739C65.5565 247.848 65.7365 247.917 65.7665 247.789C66.1564 246.141 66.7663 244.642 67.3061 243.043C67.338 242.994 67.3485 242.933 67.3353 242.876C67.3222 242.819 67.2865 242.769 67.2362 242.737C67.1858 242.706 67.1248 242.696 67.0667 242.709C67.0086 242.722 66.958 242.757 66.9262 242.807Z" fill="#263238"/>
<path d="M5.80877 284.014C7.32846 288.769 10.9277 295.34 16.6365 295.389C20.3358 295.389 24.065 294.994 27.7743 294.935C31.7734 294.876 35.7726 294.886 39.6918 295.123C40.0217 295.123 39.2219 283.383 29.6939 277.661C27.0144 276.053 23.6951 275.55 20.6957 274.899C17.2185 274.087 13.6501 273.719 10.0779 273.804C7.88834 273.892 6.07871 274.356 5.27887 276.566C4.47904 278.776 5.07892 281.755 5.80877 284.014Z" fill="#DFFF24"/>
<path d="M9.91794 278.075C12.2375 278.657 14.577 279.338 16.9165 280.048C16.3108 279.393 15.6665 278.774 14.9869 278.194C13.9871 277.375 12.8873 276.724 11.8176 276.004C11.7276 275.944 11.8176 275.767 11.8975 275.816C14.1578 276.737 16.1089 278.269 17.5264 280.236C20.4358 281.163 23.3052 282.209 26.0746 283.304C27.9874 284.072 29.8191 285.024 31.5435 286.145C30.9796 284.955 30.3105 283.816 29.5439 282.742C28.2742 281.124 26.5445 280.226 24.9049 279.072C24.8832 279.065 24.8633 279.054 24.8468 279.038C24.8303 279.023 24.8175 279.004 24.8094 278.983C24.8013 278.962 24.7982 278.94 24.8002 278.917C24.8022 278.895 24.8093 278.873 24.8209 278.854C24.8326 278.835 24.8486 278.819 24.8676 278.806C24.8866 278.794 24.9082 278.786 24.9307 278.784C24.9532 278.781 24.9761 278.783 24.9976 278.79C25.0191 278.797 25.0387 278.809 25.0548 278.825C26.7889 279.567 28.3466 280.658 29.6276 282.029C30.9087 283.4 31.8848 285.021 32.4933 286.786C34.4832 288.193 36.3016 289.822 37.9122 291.64C44.2309 298.723 49.2099 308.145 49.2199 317.754C49.2199 317.981 48.8499 318.05 48.81 317.813C47.1966 308.394 43.0536 299.574 36.8124 292.272C36.3625 291.759 35.8926 291.285 35.4227 290.782C33.6764 290.541 31.9168 290.406 30.1538 290.377C28.1542 290.377 26.1546 290.673 24.075 290.831C20.7457 291.098 17.0765 291.137 14.0771 289.49C13.9371 289.411 14.0771 289.184 14.1771 289.243C20.8857 291.64 27.9142 288.592 34.6329 290.032C31.7623 287.331 28.4008 285.189 24.7249 283.718L24.105 283.482C19.8059 283.985 15.2568 285.099 11.1077 283.718C11.0946 283.714 11.0823 283.708 11.0717 283.699C11.0611 283.691 11.0523 283.68 11.0458 283.668C11.0393 283.657 11.0352 283.643 11.0338 283.63C11.0325 283.617 11.0338 283.603 11.0377 283.59C11.0417 283.577 11.0481 283.565 11.0568 283.555C11.0655 283.544 11.0761 283.535 11.0882 283.529C11.1003 283.523 11.1135 283.519 11.1271 283.517C11.1408 283.516 11.1546 283.517 11.1677 283.521C15.1669 284.507 19.0961 283.264 23.0952 283.067C18.7461 281.39 14.307 280.058 9.94794 278.401C9.52802 278.302 9.51802 277.967 9.91794 278.075Z" fill="#263238"/>
<path d="M22.1554 278.174C23.3136 278.688 24.3646 279.411 25.2548 280.305C25.3648 280.394 25.2548 280.591 25.1048 280.502C24.5749 280.127 24.035 279.772 23.4852 279.427C22.9635 279.126 22.4594 278.797 21.9755 278.44C21.9617 278.411 21.9558 278.379 21.9583 278.347C21.9608 278.315 21.9716 278.284 21.9896 278.257C22.0077 278.23 22.0325 278.209 22.0615 278.194C22.0905 278.18 22.1229 278.173 22.1554 278.174Z" fill="#263238"/>
<path d="M55.8785 293.475C55.8085 293.633 56.0285 293.781 56.1184 293.613C56.1555 293.662 56.2084 293.697 56.2684 293.712C60.113 294.605 64.0096 295.263 67.936 295.685C71.0854 295.961 74.7246 296.139 77.494 294.324C81.2333 291.877 83.7028 285.326 81.6732 281.163C79.2837 276.23 72.0652 278.904 68.4359 280.66C62.8604 283.352 58.4171 287.886 55.8785 293.475Z" fill="#DFFF24"/>
<path d="M53.0691 295.754C55.1904 293.751 57.5388 291.997 60.0676 290.525C61.8907 287.703 64.3042 285.298 67.1462 283.472C67.2761 283.383 67.3961 283.59 67.2662 283.689C64.9946 285.472 62.9769 287.549 61.2674 289.864C64.0804 288.344 67.0007 287.025 70.0056 285.918C71.0808 283.952 72.7138 282.337 74.7046 281.272C74.7046 281.272 74.7846 281.272 74.7546 281.341C73.1068 282.568 71.6718 284.05 70.5055 285.731C72.2851 285.07 74.0748 284.468 75.8744 283.876C76.0343 283.827 76.0943 284.064 75.9444 284.123C72.745 285.356 69.4857 286.658 66.3263 288.148C70.1812 288.754 74.109 288.754 77.9639 288.148C78.0739 288.148 78.1239 288.276 77.9639 288.306C73.9431 289.482 69.6721 289.547 65.6165 288.493C63.6005 289.457 61.6442 290.537 59.7577 291.729C61.3447 291.603 62.942 291.733 64.4867 292.114C67.2167 292.742 70.0118 293.053 72.815 293.041C72.915 293.041 72.945 293.209 72.815 293.229C67.986 294.047 63.4269 291.887 58.6379 292.449C56.8532 293.637 55.1802 294.981 53.6389 296.464C50.6543 299.405 48.1966 302.825 46.3704 306.576C44.3709 310.621 43.2611 314.913 41.6314 319.095C41.6195 319.133 41.5928 319.165 41.5571 319.184C41.5215 319.202 41.4799 319.206 41.4415 319.194C41.403 319.182 41.3709 319.156 41.3521 319.121C41.3334 319.086 41.3295 319.045 41.3415 319.007C42.8312 310.72 46.9903 301.634 53.0691 295.754Z" fill="#263238"/>
<path d="M67.6361 284.458C67.9521 283.896 68.3687 283.394 68.8658 282.978C69.2743 282.545 69.7586 282.187 70.2955 281.923C70.2955 281.923 70.3655 281.972 70.2955 282.002C69.8956 282.446 69.2957 282.771 68.9158 283.195C68.5359 283.62 68.136 284.123 67.6961 284.547C67.6861 284.606 67.5961 284.527 67.6361 284.458Z" fill="#263238"/>
<path d="M75.5945 287.013C76.3143 286.836 77.0642 286.855 77.794 286.707C78.5239 286.559 79.2137 286.293 79.9336 286.076C79.9535 286.068 79.9757 286.068 79.9954 286.077C80.0151 286.085 80.0306 286.101 80.0385 286.12C80.0465 286.14 80.0462 286.162 80.0378 286.181C80.0294 286.201 80.0134 286.216 79.9936 286.224C78.676 287.019 77.1307 287.365 75.5945 287.211C75.578 287.2 75.5644 287.185 75.5551 287.168C75.5457 287.151 75.5408 287.131 75.5408 287.112C75.5408 287.092 75.5457 287.073 75.5551 287.056C75.5644 287.039 75.578 287.024 75.5945 287.013Z" fill="#263238"/>
<path d="M33.1832 308.806L33.813 315.909L35.9626 339.882H54.9887L57.6781 315.909L58.478 308.806H33.1832Z" fill="#37474F"/>
<path d="M33.1832 308.806L33.813 315.909H57.6781L58.478 308.806H33.1832Z" fill="#263238"/>
<path d="M31.3035 312.624H60.3676V306.862H31.3035V312.624Z" fill="#37474F"/>
<path d="M383.561 221.034H313.296V386.032H383.561V221.034Z" fill="#37474F"/>
<path d="M124.934 221.034H54.6688V386.032H124.934V221.034Z" fill="#455A64"/>
<path d="M383.561 221.034H124.934V242.58H383.561V221.034Z" fill="#455A64"/>
<path d="M125.384 231.807L157.658 231.629L189.931 231.56L254.478 231.442L319.015 231.56L351.288 231.629L383.561 231.807L351.288 231.984L319.015 232.053L254.478 232.172L189.931 232.053L157.658 231.984L125.384 231.807Z" fill="#263238"/>
<path d="M134.382 221.034H124.934V386.032H134.382V221.034Z" fill="#37474F"/>
<path d="M383.561 221.034H374.113V386.032H383.561V221.034Z" fill="#455A64"/>
<path d="M202.808 217.206H199.039V219.633H202.808V217.206Z" fill="#DBDBDB"/>
<path d="M207.707 217.048H203.938V219.475H207.707V217.048Z" fill="#DBDBDB"/>
<path d="M212.596 216.89H208.827V219.317H212.596V216.89Z" fill="#DBDBDB"/>
<path d="M217.485 216.723H213.716V219.149H217.485V216.723Z" fill="#DBDBDB"/>
<path d="M222.374 216.565H218.605V218.992H222.374V216.565Z" fill="#DBDBDB"/>
<path d="M227.263 216.407H223.494V218.834H227.263V216.407Z" fill="#DBDBDB"/>
<path d="M232.162 216.249H228.393V218.676H232.162V216.249Z" fill="#DBDBDB"/>
<path d="M237.051 216.081H233.282V218.508H237.051V216.081Z" fill="#DBDBDB"/>
<path d="M241.94 215.923H238.171V218.35H241.94V215.923Z" fill="#DBDBDB"/>
<path d="M242.87 221.034H198.119V218.084L242.87 216.851V221.034Z" fill="#C7C7C7"/>
<path d="M311.136 205.525H230.263L243.12 146.106H323.993L311.136 205.525Z" fill="#DBDBDB"/>
<path d="M314.125 205.525H233.252L246.109 146.106H326.983L314.125 205.525Z" fill="#C7C7C7"/>
<path d="M287.101 172.378C286.852 173.73 286.141 174.958 285.086 175.856C284.03 176.754 282.695 177.267 281.302 177.31C280.674 177.329 280.05 177.207 279.477 176.954C278.903 176.701 278.396 176.323 277.991 175.848C277.587 175.373 277.298 174.814 277.144 174.213C276.99 173.612 276.976 172.985 277.103 172.378C277.35 171.026 278.059 169.798 279.113 168.9C280.166 168.003 281.5 167.489 282.892 167.445C283.52 167.427 284.144 167.549 284.718 167.802C285.292 168.055 285.8 168.433 286.205 168.907C286.61 169.382 286.9 169.94 287.056 170.541C287.211 171.142 287.226 171.77 287.101 172.378Z" fill="#A6A6A6"/>
<path d="M291.25 221.034H251.478V217.985L291.25 216.723V221.034Z" fill="#DBDBDB"/>
<path d="M302.068 221.034H280.712L267.855 187.738H289.211L302.068 221.034Z" fill="#DBDBDB"/>
<path d="M305.587 221.034H284.232L271.364 187.738H292.72L305.587 221.034Z" fill="#A6A6A6"/>
<path d="M176.624 221.034H146.7C144.14 221.034 147.84 213.862 157.158 211.109C166.476 208.357 179.563 218.36 176.624 221.034Z" fill="#C7C7C7"/>
<path d="M164.876 221.034C164.818 220.206 164.906 219.375 165.136 218.577C165.36 217.766 165.696 216.989 166.136 216.269C166.574 215.544 167.131 214.898 167.786 214.355C168.436 213.818 169.192 213.418 170.005 213.181C169.384 213.693 168.799 214.246 168.255 214.838C167.736 215.418 167.274 216.046 166.876 216.713C166.061 218.082 165.391 219.53 164.876 221.034Z" fill="#A6A6A6"/>
<path d="M168.425 214.207C169.343 214.406 170.235 214.707 171.085 215.105C171.94 215.495 172.759 215.957 173.534 216.486C174.324 217.037 175.025 217.702 175.614 218.459C176.254 219.184 176.609 220.112 176.614 221.073C176.294 220.231 175.785 219.472 175.124 218.853C174.478 218.242 173.783 217.685 173.044 217.186C171.565 216.14 169.995 215.233 168.425 214.207Z" fill="#A6A6A6"/>
<path d="M374.103 210.399H319.484V221.034H374.103V210.399Z" fill="#DFFF24"/>
<path d="M328.223 210.399H322.884V221.034H328.223V210.399Z" fill="#37474F"/>
<path d="M332.432 210.399H330.202V221.034H332.432V210.399Z" fill="#37474F"/>
<path d="M367.684 210.399H362.346V221.034H367.684V210.399Z" fill="#37474F"/>
<path d="M354.207 202.467H316.315V210.399H354.207V202.467Z" fill="#455A64"/>
<path d="M370.554 202.467H354.207V210.399H370.554V202.467Z" fill="#455A64"/>
<path d="M354.207 203.286H316.315V209.57H354.207V203.286Z" fill="white"/>
<path d="M318.765 204.549C321.764 204.46 324.673 204.391 327.623 204.361L336.481 204.302L345.339 204.361C348.338 204.361 351.248 204.46 354.207 204.549C351.208 204.637 348.298 204.707 345.339 204.736L336.481 204.795L327.623 204.736C324.673 204.736 321.724 204.667 318.765 204.549Z" fill="#DBDBDB"/>
<path d="M318.765 205.811C321.764 205.723 324.673 205.654 327.623 205.624L336.481 205.565L345.339 205.624C348.338 205.624 351.248 205.723 354.207 205.811C351.208 205.91 348.298 205.969 345.339 206.009L336.481 206.058L327.623 205.999C324.673 205.969 321.724 205.9 318.765 205.811Z" fill="#DBDBDB"/>
<path d="M318.765 207.045C321.724 206.953 324.677 206.89 327.623 206.857L336.481 206.798L345.339 206.857C348.338 206.857 351.248 206.956 354.207 207.045C351.208 207.143 348.298 207.202 345.339 207.242L336.481 207.291L327.623 207.232C324.673 207.202 321.724 207.133 318.765 207.045Z" fill="#DBDBDB"/>
<path d="M318.765 208.278C321.724 208.186 324.677 208.123 327.623 208.09L336.481 208.031L345.339 208.09C348.338 208.09 351.248 208.189 354.207 208.278C351.208 208.376 348.298 208.436 345.339 208.475L336.481 208.524L327.623 208.475C324.673 208.436 321.724 208.376 318.765 208.278Z" fill="#DBDBDB"/>
<path d="M362.735 193.766H324.813V202.457H362.735V193.766Z" fill="#37474F"/>
<path d="M358.706 193.766H355.177V202.457H358.706V193.766Z" fill="#DFFF24"/>
<path d="M352.857 193.766H351.488V202.457H352.857V193.766Z" fill="#DFFF24"/>
<path opacity="0.6" d="M114.906 201.165C114.906 201.165 126.744 195.788 126.744 188.567C126.744 181.345 111.397 176.728 111.397 171.075C111.397 165.423 118.136 162.128 118.136 162.128C118.136 162.128 107.568 165.689 107.568 172.822C107.568 179.954 117.636 184.818 118.606 189.317C119.945 195.67 114.906 201.165 114.906 201.165Z" fill="#DBDBDB"/>
<path opacity="0.6" d="M115.496 201.165C115.496 201.165 103.659 196.933 103.659 191.299C103.659 185.666 119.006 181.977 119.006 177.547C119.006 173.118 112.307 170.513 112.307 170.513C112.307 170.513 122.885 173.315 122.885 178.918C122.885 184.522 111.267 188.379 110.437 192.937C109.607 197.495 115.496 201.165 115.496 201.165Z" fill="#DBDBDB"/>
<path d="M120.665 219.307H109.407V221.044H120.665V219.307Z" fill="#37474F"/>
<path d="M120.665 219.307H109.407V220.452H120.665V219.307Z" fill="#263238"/>
<path d="M96.0402 214.641C96.7254 215.64 97.6873 216.423 98.8113 216.897C99.9353 217.371 101.174 217.516 102.379 217.314C102.769 217.245 103.151 217.136 103.519 216.989C104.079 216.777 104.612 216.502 105.108 216.17L103.679 214.079C103.412 214.258 103.131 214.416 102.839 214.552C102.017 214.921 101.087 214.986 100.22 214.734C99.3539 214.482 98.6082 213.931 98.1198 213.181C96.5801 211.04 96.0302 206.157 97.5899 204.302C97.6899 204.164 98.1498 203.947 99.9594 204.302C100.299 204.381 100.669 204.46 101.099 204.578C101.423 204.689 101.758 204.762 102.099 204.795V203.542L102.219 202.29L101.689 202.151C100.852 201.909 99.9957 201.734 99.1296 201.629C98.4881 201.493 97.8224 201.519 97.1935 201.703C96.5647 201.888 95.9928 202.225 95.5303 202.684C93.0708 205.752 94.1406 211.958 96.0402 214.641Z" fill="#37474F"/>
<path d="M103.679 214.079C103.412 214.258 103.131 214.416 102.839 214.552L103.519 216.989C104.079 216.777 104.612 216.502 105.108 216.17L103.679 214.079Z" fill="#263238"/>
<path d="M99.2096 201.589L99.9595 204.263C100.299 204.341 100.669 204.42 101.099 204.539C101.423 204.65 101.758 204.723 102.099 204.756V203.503L102.219 202.25L101.689 202.112C100.878 201.874 100.049 201.699 99.2096 201.589Z" fill="#263238"/>
<path d="M130.013 198.343C130.013 198.343 128.664 209.659 126.324 214.434C123.985 219.209 120.735 219.731 118.716 219.731H111.347C109.348 219.731 106.068 219.199 103.739 214.434C101.409 209.669 100.059 198.343 100.059 198.343H130.013Z" fill="#37474F"/>
<path d="M104.948 201.589C104.95 201.849 104.874 202.104 104.729 202.321C104.584 202.538 104.377 202.707 104.135 202.808C103.892 202.909 103.624 202.936 103.365 202.887C103.107 202.837 102.869 202.713 102.682 202.53C102.495 202.347 102.367 202.113 102.315 201.859C102.263 201.604 102.289 201.339 102.389 201.099C102.49 200.859 102.66 200.653 102.879 200.509C103.098 200.364 103.355 200.287 103.619 200.287C103.97 200.287 104.306 200.424 104.555 200.668C104.805 200.912 104.946 201.243 104.948 201.589ZM115.346 200.011C115.083 200.011 114.826 200.088 114.608 200.232C114.389 200.376 114.218 200.581 114.118 200.821C114.017 201.06 113.991 201.324 114.042 201.579C114.093 201.833 114.22 202.067 114.406 202.25C114.592 202.434 114.829 202.559 115.087 202.61C115.345 202.66 115.612 202.634 115.855 202.535C116.098 202.436 116.306 202.267 116.452 202.052C116.598 201.836 116.676 201.582 116.676 201.323C116.679 201.149 116.646 200.976 116.581 200.814C116.515 200.653 116.417 200.506 116.294 200.382C116.17 200.258 116.022 200.16 115.86 200.093C115.697 200.025 115.523 199.991 115.346 199.991V200.011ZM115.346 216.486C115.083 216.486 114.826 216.563 114.608 216.707C114.389 216.851 114.218 217.056 114.118 217.296C114.017 217.535 113.991 217.799 114.042 218.054C114.093 218.308 114.22 218.542 114.406 218.726C114.592 218.909 114.829 219.034 115.087 219.085C115.345 219.135 115.612 219.109 115.855 219.01C116.098 218.911 116.306 218.743 116.452 218.527C116.598 218.311 116.676 218.057 116.676 217.798C116.677 217.624 116.644 217.452 116.578 217.291C116.512 217.13 116.414 216.984 116.291 216.86C116.167 216.736 116.02 216.638 115.858 216.57C115.696 216.503 115.522 216.467 115.346 216.466V216.486ZM124.994 209.057C124.731 209.057 124.474 209.134 124.256 209.278C124.037 209.422 123.866 209.627 123.766 209.867C123.665 210.107 123.639 210.371 123.69 210.625C123.741 210.88 123.868 211.114 124.054 211.297C124.24 211.481 124.477 211.605 124.735 211.656C124.993 211.707 125.26 211.681 125.503 211.581C125.746 211.482 125.954 211.314 126.1 211.098C126.246 210.882 126.324 210.629 126.324 210.369C126.328 210.195 126.297 210.022 126.231 209.859C126.166 209.697 126.069 209.55 125.945 209.426C125.821 209.301 125.673 209.203 125.509 209.136C125.346 209.07 125.171 209.036 124.994 209.037V209.057ZM110.217 212.934C109.954 212.934 109.697 213.011 109.479 213.155C109.26 213.3 109.089 213.504 108.989 213.744C108.888 213.984 108.862 214.248 108.913 214.502C108.964 214.757 109.091 214.991 109.277 215.174C109.463 215.358 109.7 215.483 109.958 215.533C110.216 215.584 110.483 215.558 110.726 215.459C110.969 215.359 111.177 215.191 111.323 214.975C111.469 214.76 111.547 214.506 111.547 214.246C111.551 214.072 111.52 213.899 111.454 213.737C111.389 213.574 111.292 213.427 111.168 213.303C111.044 213.179 110.896 213.08 110.732 213.013C110.569 212.947 110.394 212.913 110.217 212.914V212.934ZM125.834 200.011C125.571 200.011 125.314 200.088 125.095 200.232C124.877 200.376 124.706 200.581 124.606 200.821C124.505 201.06 124.479 201.324 124.53 201.579C124.581 201.833 124.708 202.067 124.894 202.25C125.08 202.434 125.317 202.559 125.575 202.61C125.833 202.66 126.1 202.634 126.343 202.535C126.586 202.436 126.794 202.267 126.94 202.052C127.086 201.836 127.164 201.582 127.164 201.323C127.168 201.148 127.136 200.975 127.071 200.813C127.006 200.651 126.909 200.503 126.785 200.379C126.661 200.255 126.513 200.157 126.349 200.09C126.186 200.023 126.011 199.989 125.834 199.991V200.011ZM115.196 208.889C114.933 208.889 114.676 208.966 114.458 209.111C114.239 209.255 114.068 209.46 113.968 209.699C113.867 209.939 113.841 210.203 113.892 210.457C113.943 210.712 114.07 210.946 114.256 211.129C114.442 211.313 114.679 211.438 114.937 211.488C115.195 211.539 115.462 211.513 115.705 211.414C115.948 211.314 116.156 211.146 116.302 210.93C116.448 210.715 116.526 210.461 116.526 210.202C116.536 210.024 116.508 209.846 116.446 209.68C116.383 209.513 116.286 209.361 116.162 209.232C116.037 209.104 115.887 209.002 115.721 208.933C115.555 208.863 115.377 208.829 115.196 208.83V208.889ZM105.108 209.097C104.845 209.097 104.588 209.174 104.37 209.318C104.151 209.462 103.981 209.667 103.88 209.907C103.779 210.146 103.753 210.41 103.804 210.665C103.856 210.919 103.982 211.153 104.168 211.336C104.354 211.52 104.591 211.645 104.849 211.696C105.107 211.746 105.374 211.72 105.617 211.621C105.86 211.522 106.068 211.353 106.214 211.138C106.36 210.922 106.438 210.668 106.438 210.409C106.446 210.234 106.419 210.059 106.357 209.895C106.296 209.731 106.202 209.581 106.081 209.453C105.96 209.325 105.814 209.223 105.652 209.151C105.49 209.08 105.316 209.041 105.138 209.037L105.108 209.097ZM120.665 204.707C120.402 204.707 120.145 204.783 119.926 204.928C119.708 205.072 119.537 205.277 119.437 205.516C119.336 205.756 119.31 206.02 119.361 206.275C119.412 206.529 119.539 206.763 119.725 206.946C119.911 207.13 120.148 207.255 120.406 207.305C120.664 207.356 120.931 207.33 121.174 207.231C121.417 207.132 121.625 206.963 121.771 206.748C121.917 206.532 121.995 206.278 121.995 206.019C122.004 205.841 121.977 205.663 121.914 205.497C121.852 205.33 121.755 205.178 121.631 205.049C121.506 204.921 121.356 204.819 121.19 204.75C121.024 204.681 120.845 204.646 120.665 204.647V204.707ZM120.295 213.181C120.032 213.181 119.775 213.258 119.557 213.402C119.338 213.546 119.167 213.751 119.067 213.991C118.966 214.231 118.94 214.494 118.991 214.749C119.042 215.003 119.169 215.237 119.355 215.421C119.541 215.604 119.778 215.729 120.036 215.78C120.294 215.83 120.561 215.804 120.804 215.705C121.047 215.606 121.255 215.438 121.401 215.222C121.547 215.006 121.625 214.752 121.625 214.493C121.632 214.316 121.602 214.14 121.539 213.974C121.475 213.809 121.378 213.658 121.254 213.53C121.13 213.402 120.981 213.3 120.817 213.23C120.652 213.16 120.475 213.123 120.295 213.122V213.181ZM109.587 204.707C109.324 204.707 109.067 204.783 108.849 204.928C108.63 205.072 108.46 205.277 108.359 205.516C108.258 205.756 108.232 206.02 108.283 206.275C108.335 206.529 108.461 206.763 108.647 206.946C108.833 207.13 109.07 207.255 109.328 207.305C109.586 207.356 109.853 207.33 110.096 207.231C110.339 207.132 110.547 206.963 110.693 206.748C110.839 206.532 110.917 206.278 110.917 206.019C110.925 205.841 110.897 205.664 110.834 205.498C110.771 205.332 110.674 205.18 110.55 205.052C110.425 204.924 110.276 204.822 110.111 204.753C109.945 204.683 109.767 204.647 109.587 204.647V204.707Z" fill="#455A64"/>
<path d="M291.52 387.433C292.87 387.867 294.08 388.844 294.839 387.541C295.599 386.239 297.679 386.624 298.449 386.348C299.219 386.072 300.298 383.872 300.248 383.191C300.198 382.51 299.618 381.8 299.608 381.149C299.598 380.498 299.608 379.541 299.488 378.643C299.531 378.073 299.405 377.504 299.126 377.003C298.848 376.503 298.428 376.092 297.919 375.821C296.934 375.426 295.87 375.257 294.809 375.328C293.92 375.239 293.27 373.838 291.5 373.306C289.73 372.773 287.431 374.716 287.231 375.496C287.031 376.275 286.861 378.643 286.231 379.521C285.601 380.399 284.661 380.113 284.502 381.208C284.342 382.303 284.402 384.118 284.721 384.444C285.041 384.769 285.911 384.276 286.301 384.937C286.691 385.598 287.051 387.344 287.851 387.739C288.651 388.133 290.48 387.058 291.52 387.433Z" fill="#EBEBEB"/>
<path d="M276.873 334.18L275.153 335.886L275.093 335.265V335.255L276.193 334.18H276.873Z" fill="#263238"/>
<path d="M283.392 334.18L277.543 339.99L275.653 341.835L275.623 341.441V341.431L275.603 341.224L277.193 339.645L282.762 334.18H283.392Z" fill="#263238"/>
<path d="M289.92 334.18L280.812 343.226L276.173 347.774L276.163 347.675L276.123 347.182L280.462 342.871L289.331 334.18H289.92Z" fill="#263238"/>
<path d="M296.449 334.18L284.092 346.442L276.683 353.703L276.633 353.151L283.732 346.107L295.889 334.18H296.449Z" fill="#263238"/>
<path d="M302.948 334.18C302.068 335.077 301.178 335.965 300.288 336.853L287.361 349.678L277.193 359.652V359.119L287.051 349.323L300.048 336.577C300.868 335.768 301.698 334.969 302.528 334.17L302.948 334.18Z" fill="#263238"/>
<path d="M309.446 334.18C307.487 336.153 305.524 338.126 303.558 340.099L290.64 352.924L277.703 365.591V365.098L290.28 352.529L303.278 339.773L309.077 334.14L309.446 334.18Z" fill="#263238"/>
<path d="M315.905 334.18C312.899 337.238 309.873 340.283 306.827 343.315L293.91 356.14L280.912 368.896C280.022 369.774 279.123 370.642 278.223 371.51V371.096C279.033 370.267 279.862 369.448 280.682 368.63L293.61 355.805L306.607 343.059C309.646 340.092 312.699 337.133 315.765 334.18H315.905Z" fill="#263238"/>
<path d="M322.274 334.249C318.235 338.353 314.179 342.437 310.106 346.502L297.179 359.327L284.182 372.073L278.723 377.37V377.045C280.456 375.302 282.195 373.556 283.942 371.806L296.859 358.981L309.856 346.235C313.962 342.236 318.101 338.241 322.274 334.249Z" fill="#263238"/>
<path d="M321.684 341.204V341.421C318.924 344.203 316.162 346.978 313.396 349.747L300.478 362.572L287.481 375.328C284.748 377.959 282.005 380.616 279.253 383.299V383.102C281.919 380.419 284.585 377.745 287.251 375.081L300.168 362.257L313.166 349.501C315.978 346.732 318.818 343.966 321.684 341.204Z" fill="#263238"/>
<path d="M321.094 348.169V348.603L316.705 353.003L303.778 365.828L290.78 378.574C287.241 382.027 283.685 385.466 280.112 388.893H279.992C283.472 385.341 286.974 381.813 290.5 378.307L303.428 365.483L316.425 352.736L321.094 348.169Z" fill="#263238"/>
<path d="M320.484 355.153L320.434 355.716L319.924 356.229L307.007 369.054L294.01 381.8C291.583 384.174 289.147 386.538 286.701 388.893H286.411C288.851 386.433 291.293 383.98 293.74 381.533L306.657 368.708L319.654 355.953L320.484 355.153Z" fill="#263238"/>
<path d="M319.874 362.187V362.809L310.276 372.26L297.279 385.016L293.28 388.873H292.86C294.233 387.492 295.606 386.118 296.979 384.75L309.906 371.925L319.874 362.187Z" fill="#263238"/>
<path d="M319.274 369.212L319.214 369.892L313.546 375.525L300.548 388.272L299.898 388.903H299.378L300.278 388.005L313.196 375.18L319.274 369.212Z" fill="#263238"/>
<path d="M318.665 376.246L318.605 376.986L316.825 378.751L306.467 388.903H305.897L316.465 378.406L318.665 376.246Z" fill="#263238"/>
<path d="M318.065 383.299V383.329L318.005 384.039L313.046 388.903H312.426L318.065 383.299Z" fill="#263238"/>
<path d="M322.194 335.255L322.134 335.896L320.414 334.18H321.094L322.194 335.255Z" fill="#263238"/>
<path d="M321.684 341.224L321.624 341.835L319.744 339.99L313.885 334.18H314.525L320.094 339.645L321.684 341.224Z" fill="#263238"/>
<path d="M321.164 347.182L321.124 347.675L321.114 347.784L316.465 343.226L307.357 334.18H307.957L316.825 342.871L321.164 347.182Z" fill="#263238"/>
<path d="M320.654 353.161L320.604 353.723L313.196 346.442L300.838 334.18H301.388L313.546 346.107L320.654 353.161Z" fill="#263238"/>
<path d="M320.144 359.139L320.094 359.662L309.926 349.688L296.999 336.863C296.109 335.975 295.219 335.087 294.34 334.19H294.789C295.619 334.989 296.449 335.788 297.269 336.597L310.266 349.343L320.144 359.139Z" fill="#263238"/>
<path d="M319.624 365.098V365.591L306.687 352.914L293.77 340.089C291.77 338.116 289.807 336.143 287.881 334.17H288.241L294.04 339.803L307.037 352.559L319.624 365.098Z" fill="#263238"/>
<path d="M319.094 371.096V371.52L316.395 368.896L303.398 356.14L290.47 343.315C287.438 340.276 284.415 337.231 281.402 334.18H281.592C284.652 337.12 287.704 340.079 290.75 343.059L303.748 355.805L316.675 368.63L319.094 371.096Z" fill="#263238"/>
<path d="M318.595 377.094V377.42C316.765 375.673 314.945 373.898 313.126 372.122L300.128 359.376L287.211 346.551C283.132 342.486 279.076 338.402 275.043 334.298C279.209 338.29 283.355 342.299 287.481 346.324L300.478 359.07L313.396 371.895C315.135 373.618 316.868 375.351 318.595 377.094Z" fill="#263238"/>
<path d="M318.095 383.112V383.339C315.335 380.708 312.592 378.051 309.866 375.368L296.869 362.612L283.952 349.787C281.186 347.024 278.423 344.249 275.663 341.46V341.224C278.536 343.979 281.396 346.745 284.242 349.52L297.239 362.276L310.166 375.101C312.786 377.752 315.428 380.422 318.095 383.112Z" fill="#263238"/>
<path d="M317.345 388.903H317.225C313.652 385.476 310.096 382.037 306.557 378.584L293.56 365.838L280.632 353.013L276.243 348.583V348.149C277.816 349.668 279.383 351.191 280.942 352.717L293.94 365.463L306.857 378.288C310.346 381.829 313.865 385.351 317.345 388.903Z" fill="#263238"/>
<path d="M310.886 388.903H310.596C308.15 386.548 305.714 384.184 303.288 381.81L290.29 369.064L277.373 356.239L276.863 355.726L276.813 355.173C277.093 355.43 277.363 355.706 277.643 355.972L290.64 368.728L303.558 381.553C306.01 383.993 308.453 386.443 310.886 388.903Z" fill="#263238"/>
<path d="M304.397 388.903H303.988C302.654 387.588 301.321 386.302 299.988 385.046L286.991 372.29L277.443 362.819L277.393 362.187L287.341 371.944L300.268 384.769C301.658 386.15 303.038 387.522 304.397 388.903Z" fill="#263238"/>
<path d="M297.909 388.903H297.389L296.739 388.272L283.742 375.525L278.083 369.902L278.023 369.212L284.102 375.131L297.019 387.956L297.909 388.903Z" fill="#263238"/>
<path d="M291.39 388.903H290.82L280.462 378.751L278.683 376.986V376.966L278.613 376.255L280.812 378.406L291.39 388.903Z" fill="#263238"/>
<path d="M284.861 388.903H284.242L279.283 384.039L279.223 383.299L284.861 388.903Z" fill="#263238"/>
<path d="M275.487 334.253L274.492 334.342L279.539 388.957L280.534 388.868L275.487 334.253Z" fill="#263238"/>
<path d="M321.95 334.281L316.845 388.891L317.841 388.981L322.946 334.371L321.95 334.281Z" fill="#263238"/>
<path d="M325.113 328.201H272.084V337.06H325.113V328.201Z" fill="#263238"/>
<path d="M319.644 384.158H277.553V393.017H319.644V384.158Z" fill="#263238"/>
<path d="M315.945 380.823C317.545 380.596 319.584 380.596 319.704 381.494C319.824 382.392 319.094 382.885 319.324 383.329C319.982 384.006 320.69 384.632 321.444 385.203C321.953 385.731 322.32 386.375 322.514 387.078C322.514 387.305 322.894 387.68 322.514 388.124C322.134 388.567 321.914 389.248 321.604 389.584C321.513 389.668 321.44 389.769 321.39 389.882C321.341 389.995 321.315 390.117 321.315 390.24C321.315 390.363 321.341 390.484 321.39 390.597C321.44 390.71 321.513 390.812 321.604 390.896C322.054 391.498 321.674 393.214 320.994 393.855C320.314 394.497 318.335 393.036 317.735 393.184C317.135 393.332 317.045 393.628 316.515 394.003C315.603 394.729 314.493 395.172 313.326 395.276C311.966 395.276 311.276 394.082 310.446 393.559C309.696 393.175 308.904 392.874 308.087 392.662C307.409 392.386 306.811 391.949 306.347 391.389C306.197 391.083 305.667 391.014 305.887 390.185C306.107 389.357 306.497 389.14 306.497 388.469C306.497 387.798 306.497 387.67 306.497 386.91C306.497 386.15 305.877 384.799 306.407 384.197C306.937 383.595 307.327 382.698 308.157 382.698C308.986 382.698 311.646 383.151 311.646 383.151C311.929 382.846 312.183 382.516 312.406 382.165C312.598 381.852 312.868 381.591 313.189 381.408C313.511 381.226 313.874 381.126 314.245 381.119C314.824 381.107 315.397 381.007 315.945 380.823Z" fill="white"/>
<path d="M306.497 388.429C307.587 388.923 308.687 389.367 309.796 389.791C310.906 390.215 312.006 390.689 313.116 391.093C314.207 391.51 315.322 391.866 316.455 392.158C316.68 392.216 316.912 392.243 317.145 392.237L317.815 391.902C318.32 391.647 318.805 391.353 319.264 391.024C319.706 390.729 320.083 390.35 320.374 389.909C320.436 389.805 320.489 389.696 320.534 389.584L320.584 389.426V389.347C320.528 389.16 320.428 388.987 320.294 388.844C319.507 388.012 318.636 387.261 317.695 386.604C316.745 385.914 315.755 385.253 314.755 384.631C314.255 384.306 313.756 384 313.236 383.714C312.976 383.566 312.716 383.428 312.446 383.299L312.096 383.112C311.966 383.112 311.786 382.974 311.686 383.112C311.776 382.974 311.976 383.053 312.116 383.063C312.265 383.093 312.412 383.132 312.556 383.181C312.836 383.27 313.116 383.378 313.396 383.497C313.955 383.724 314.505 383.97 315.045 384.227C316.115 384.769 317.155 385.351 318.175 385.993C319.241 386.615 320.217 387.378 321.074 388.262C321.346 388.53 321.527 388.875 321.594 389.248C321.604 389.324 321.604 389.4 321.594 389.475V389.613L321.514 389.87C321.452 390.034 321.375 390.192 321.284 390.343C320.936 390.902 320.477 391.385 319.934 391.764C319.429 392.135 318.894 392.465 318.335 392.75L317.925 392.948L317.715 393.046L317.605 393.096L317.385 393.165C317.021 393.196 316.655 393.159 316.305 393.056C315.135 392.722 313.994 392.293 312.896 391.774C310.677 390.827 308.537 389.709 306.497 388.429Z" fill="#C7C7C7"/>
<path d="M311.026 390.452C311.62 389.538 312.289 388.673 313.026 387.867C313.386 387.453 313.766 387.068 314.155 386.683C314.355 386.496 314.575 386.318 314.785 386.131C315.029 385.924 315.297 385.748 315.585 385.608H315.735C315.841 385.588 315.949 385.588 316.055 385.608C316.215 385.634 316.362 385.71 316.475 385.825C316.588 385.941 316.692 386.067 316.785 386.2C316.952 386.431 317.106 386.671 317.245 386.92C317.505 387.403 317.765 387.906 317.985 388.38C318.444 389.362 318.78 390.396 318.984 391.458L317.265 388.735C316.975 388.291 316.705 387.837 316.405 387.403C316.265 387.186 316.125 386.969 315.975 386.782C315.825 386.594 315.825 386.604 315.765 386.535C315.705 386.466 315.765 386.535 315.845 386.535C315.862 386.543 315.881 386.546 315.9 386.546C315.919 386.546 315.938 386.543 315.955 386.535C315.755 386.636 315.567 386.758 315.395 386.9L314.795 387.384L313.576 388.419C312.736 389.11 311.916 389.811 311.026 390.452Z" fill="#C7C7C7"/>
<path d="M290.85 396.923C289.98 397.131 288.851 397.239 288.751 396.746C288.651 396.253 289.011 395.957 288.861 395.759C288.466 395.418 288.045 395.108 287.601 394.832C287.295 394.564 287.062 394.225 286.921 393.845C286.921 393.717 286.681 393.54 286.871 393.273C287.061 393.007 287.131 392.622 287.291 392.425C287.337 392.374 287.371 392.315 287.393 392.25C287.414 392.185 287.422 392.117 287.415 392.05C287.409 391.982 287.388 391.916 287.355 391.857C287.321 391.798 287.276 391.746 287.221 391.705C287.099 391.443 287.052 391.153 287.084 390.866C287.115 390.58 287.225 390.307 287.401 390.077C287.751 389.712 288.901 390.393 289.231 390.274C289.561 390.156 289.58 389.998 289.85 389.771C290.309 389.322 290.895 389.019 291.53 388.903C292.28 388.834 292.71 389.455 293.2 389.702C293.631 389.876 294.08 390.002 294.539 390.077C294.919 390.195 295.263 390.405 295.539 390.689C295.639 390.846 295.929 390.856 295.849 391.32C295.769 391.784 295.569 391.922 295.609 392.306C295.649 392.691 295.609 392.741 295.689 393.155C295.769 393.569 296.129 394.289 295.869 394.645C295.609 395 295.449 395.503 294.989 395.552C294.529 395.601 293.06 395.483 293.06 395.483C292.92 395.663 292.796 395.854 292.69 396.055C292.6 396.235 292.466 396.389 292.3 396.505C292.134 396.62 291.942 396.693 291.74 396.716C291.435 396.741 291.135 396.811 290.85 396.923Z" fill="white"/>
<path d="M287.541 392.139C288.011 391.655 288.541 391.221 288.971 390.758L289.331 390.432L289.521 390.274C289.628 390.187 289.755 390.126 289.89 390.097C290.238 390.013 290.593 389.967 290.95 389.958C291.642 389.929 292.336 389.969 293.02 390.077C293.406 390.126 293.781 390.24 294.13 390.412C294.371 390.569 294.546 390.807 294.619 391.083C294.679 391.288 294.706 391.501 294.699 391.715C294.66 392.423 294.502 393.12 294.23 393.776C294.109 394.116 293.962 394.446 293.79 394.763C293.7 394.924 293.6 395.079 293.49 395.227C293.356 395.421 293.164 395.57 292.94 395.651C292.248 395.845 291.522 395.893 290.81 395.789C290.136 395.725 289.467 395.609 288.811 395.444C289.481 395.444 290.14 395.384 290.81 395.305C291.425 395.28 292.032 395.16 292.61 394.95C292.74 394.891 292.71 394.891 292.8 394.753C292.89 394.615 292.94 394.506 293.01 394.368C293.138 394.086 293.248 393.796 293.34 393.5C293.547 392.935 293.668 392.344 293.7 391.744C293.705 391.656 293.727 391.569 293.767 391.489C293.806 391.41 293.862 391.339 293.93 391.28C293.575 391.163 293.21 391.081 292.84 391.034C292.214 390.9 291.579 390.811 290.94 390.767C290.634 390.743 290.327 390.743 290.02 390.767C289.96 390.767 289.9 390.767 289.93 390.767L289.72 390.906L289.291 391.172C288.701 391.468 288.101 391.833 287.541 392.139Z" fill="#C7C7C7"/>
<path d="M289.61 390.876C289.61 391.507 289.61 392.119 289.67 392.671C289.67 392.928 289.75 393.244 289.82 393.263C289.82 393.263 289.82 393.263 289.87 393.263C289.987 393.271 290.104 393.271 290.22 393.263C290.76 393.184 291.34 393.017 291.93 392.898C292.532 392.757 293.143 392.658 293.76 392.602C293.282 392.996 292.754 393.328 292.19 393.589C291.618 393.874 291.009 394.079 290.38 394.201C290.191 394.216 290 394.216 289.81 394.201C289.68 394.191 289.551 394.161 289.43 394.112C289.283 394.042 289.158 393.932 289.071 393.796C288.876 393.44 288.819 393.026 288.911 392.632C289.02 392.006 289.258 391.408 289.61 390.876Z" fill="#C7C7C7"/>
<path d="M283.602 384.098C283.162 382.767 283.242 381.228 281.722 381.385C280.202 381.543 279.293 379.679 278.613 379.225C277.933 378.771 275.493 379.225 274.964 379.679C274.434 380.133 274.204 381.001 273.674 381.385C273.144 381.77 272.384 382.372 271.674 382.974C271.178 383.281 270.784 383.725 270.54 384.251C270.297 384.777 270.215 385.362 270.305 385.933C270.564 386.951 271.056 387.896 271.744 388.696C272.204 389.455 271.444 390.797 272.054 392.523C272.664 394.25 275.623 394.921 276.373 394.625C277.123 394.329 279.163 393.046 280.272 393.046C281.382 393.046 281.692 393.944 282.682 393.421C283.672 392.898 285.101 391.774 285.181 391.33C285.261 390.886 284.352 390.481 284.652 389.781C284.951 389.08 286.171 387.758 286.021 386.89C285.871 386.022 283.942 385.085 283.602 384.098Z" fill="white"/>
<path d="M280.792 381.237C278.92 381.834 277.089 382.552 275.313 383.388C275.121 383.491 274.94 383.613 274.774 383.753C274.704 383.753 274.654 384.089 274.614 384.296C274.534 384.769 274.474 385.282 274.424 385.726C274.314 386.686 274.254 387.651 274.244 388.617C274.231 389.078 274.254 389.54 274.314 389.998C274.327 390.127 274.361 390.254 274.414 390.373C274.583 390.456 274.766 390.513 274.954 390.541C275.9 390.672 276.857 390.718 277.813 390.679C278.288 390.665 278.762 390.625 279.233 390.56C279.643 390.501 280.232 390.363 280.662 390.284C281.662 390.087 282.602 389.909 283.532 389.672C283.752 389.603 283.992 389.554 284.182 389.475H284.292C284.257 389.494 284.232 389.526 284.222 389.564C284.198 389.62 284.186 389.681 284.186 389.741C284.186 389.802 284.198 389.863 284.222 389.919C284.236 389.984 284.271 390.043 284.322 390.087L284.372 390.136L284.242 390.087C283.822 389.949 283.332 389.83 282.852 389.722L279.972 389.09C278.973 388.873 278.033 388.666 277.063 388.429C276.583 388.301 276.063 388.183 275.613 388.015C275.317 387.921 275.04 387.778 274.794 387.591L274.714 387.492C274.678 387.433 274.652 387.37 274.634 387.305V387.058C274.636 386.967 274.653 386.877 274.684 386.792C274.732 386.652 274.792 386.517 274.864 386.387C275.389 385.522 276.02 384.723 276.743 384.01C276.923 383.832 277.103 383.655 277.293 383.487C277.388 383.399 277.489 383.317 277.593 383.24C277.642 383.196 277.696 383.156 277.753 383.122C277.824 383.058 277.91 383.014 278.003 382.994C278.102 382.978 278.204 382.982 278.302 383.005C278.4 383.029 278.492 383.072 278.573 383.132C278.686 383.209 278.793 383.295 278.893 383.388C279.082 383.56 279.259 383.745 279.423 383.941C280.629 385.499 281.708 387.148 282.652 388.873C281.556 387.258 280.354 385.716 279.053 384.256C278.893 384.082 278.723 383.917 278.543 383.763C278.432 383.655 278.299 383.571 278.153 383.516C278.213 383.516 278.153 383.516 278.083 383.566L277.953 383.674L277.703 383.901C277.533 384.069 277.363 384.246 277.203 384.424C276.563 385.12 276.009 385.888 275.553 386.713C275.553 386.811 275.463 386.92 275.443 386.989C275.423 387.058 275.443 387.088 275.443 387.078V386.979C275.606 387.063 275.777 387.129 275.953 387.176C276.403 387.315 276.883 387.433 277.353 387.551C278.353 387.768 279.273 387.966 280.242 388.163L283.942 388.863C284.432 388.972 284.112 388.962 284.632 389.12C284.707 389.139 284.781 389.165 284.851 389.199C284.904 389.22 284.955 389.246 285.001 389.278L285.131 389.386C285.184 389.444 285.224 389.511 285.251 389.584C285.3 389.714 285.3 389.858 285.251 389.988C285.195 390.072 285.124 390.145 285.041 390.205L284.911 390.284C284.838 390.324 284.761 390.357 284.681 390.383C284.433 390.477 284.18 390.556 283.922 390.619C282.922 390.856 281.922 391.024 280.982 391.202C280.472 391.29 280.072 391.389 279.503 391.478C278.933 391.567 278.503 391.557 277.973 391.567C276.952 391.603 275.931 391.537 274.924 391.369C274.618 391.328 274.325 391.224 274.064 391.063C273.894 390.934 273.772 390.754 273.714 390.55C273.67 390.409 273.643 390.264 273.634 390.116C273.589 389.608 273.589 389.096 273.634 388.587C273.684 387.601 273.814 386.614 273.954 385.628C274.034 385.144 274.114 384.641 274.224 384.168C274.314 383.921 274.224 383.694 274.554 383.368C274.766 383.196 275.002 383.053 275.253 382.944C276.176 382.56 277.121 382.23 278.083 381.958C278.873 381.701 279.822 381.435 280.792 381.237Z" fill="#C7C7C7"/>
<path d="M232.482 74.8979L259.667 94.6385L273.024 76.6934L245.849 56.9528L232.482 74.8979Z" fill="#EBEBEB"/>
<path d="M234.452 74.602L259.367 92.7049L271.064 76.9894L246.139 58.8864L234.452 74.602Z" fill="white"/>
<path d="M244.76 65.4469C244.364 65.9765 244.136 66.6102 244.105 67.2677C244.074 67.9253 244.242 68.577 244.587 69.1403C244.932 69.7037 245.439 70.1533 246.043 70.4322C246.647 70.7112 247.322 70.8069 247.981 70.7072C248.64 70.6075 249.255 70.317 249.747 69.8723C250.239 69.4277 250.586 68.8491 250.744 68.2096C250.902 67.5702 250.865 66.8988 250.636 66.2806C250.407 65.6623 249.997 65.1249 249.459 64.7366C249.103 64.4785 248.699 64.2921 248.271 64.1882C247.842 64.0842 247.396 64.0646 246.96 64.1306C246.524 64.1965 246.105 64.3468 245.727 64.5726C245.35 64.7985 245.021 65.0956 244.76 65.4469Z" fill="#DBDBDB"/>
<path d="M242.17 80.2449L259.337 92.7148L259.317 75.0064L242.17 80.2449Z" fill="#DBDBDB"/>
<path d="M235.432 75.3715L249.609 85.6611L248.099 73.0334L235.432 75.3715Z" fill="#EBEBEB"/>
<path d="M212.916 80.9158L244.11 93.6323L252.708 73.0433L221.514 60.3169L212.916 80.9158Z" fill="#EBEBEB"/>
<path d="M214.746 80.1562L243.35 91.8269L250.868 73.793L222.274 62.1321L214.746 80.1562Z" fill="white"/>
<path d="M222.524 68.811C222.27 69.4188 222.204 70.0874 222.335 70.7322C222.466 71.377 222.788 71.969 223.26 72.4333C223.732 72.8976 224.332 73.2134 224.986 73.3408C225.64 73.4682 226.317 73.4014 226.933 73.1489C227.548 72.8963 228.074 72.4694 228.443 71.9221C228.813 71.3748 229.009 70.7317 229.008 70.0742C229.007 69.4166 228.809 68.7741 228.437 68.2279C228.066 67.6817 227.539 67.2563 226.923 67.0056C226.097 66.6695 225.17 66.6709 224.345 67.0094C223.52 67.348 222.865 67.996 222.524 68.811Z" fill="#DBDBDB"/>
<path d="M223.614 83.8064L243.32 91.8466L238.991 74.6513L223.614 83.8064Z" fill="#DBDBDB"/>
<path d="M215.896 80.6692L232.152 87.2987L227.613 75.4011L215.896 80.6692Z" fill="#EBEBEB"/>
<path d="M199.869 88.9561L172.415 96.0394L163.196 61.264L183.582 56.0057L190.651 54.1806L192.41 60.8102L199.869 88.9561Z" fill="#EBEBEB"/>
<path d="M167.665 67.2883L190.029 61.5197L189.791 60.6225L167.427 66.3911L167.665 67.2883Z" fill="#DBDBDB"/>
<path d="M168.255 69.5339L190.619 63.7652L190.381 62.868L168.018 68.6367L168.255 69.5339Z" fill="#DBDBDB"/>
<path d="M168.858 71.7865L191.221 66.0178L190.984 65.1206L168.62 70.8893L168.858 71.7865Z" fill="#DBDBDB"/>
<path d="M169.221 73.1263L191.643 67.4241L191.408 66.5245L168.986 72.2267L169.221 73.1263Z" fill="#DBDBDB"/>
<path d="M169.819 75.374L192.241 69.6718L192.006 68.7723L169.584 74.4745L169.819 75.374Z" fill="#DBDBDB"/>
<path d="M170.651 78.5499L193.014 72.7813L192.777 71.8841L170.413 77.6527L170.651 78.5499Z" fill="#DBDBDB"/>
<path d="M171.253 80.805L193.617 75.0364L193.379 74.1392L171.016 79.9078L171.253 80.805Z" fill="#DBDBDB"/>
<path d="M171.844 83.0506L194.207 77.2819L193.97 76.3847L171.606 82.1534L171.844 83.0506Z" fill="#DBDBDB"/>
<path d="M172.436 85.3155L194.8 79.5469L194.562 78.6497L172.199 84.4183L172.436 85.3155Z" fill="#DBDBDB"/>
<path d="M173.046 87.5586L195.41 81.7899L195.172 80.8927L172.808 86.6614L173.046 87.5586Z" fill="#DBDBDB"/>
<path d="M173.438 88.8564L195.86 83.1542L195.625 82.2546L173.203 87.9568L173.438 88.8564Z" fill="#DBDBDB"/>
<path d="M174.229 92.0691L196.593 86.3005L196.355 85.4033L173.991 91.1719L174.229 92.0691Z" fill="#DBDBDB"/>
<path d="M207.157 98.9891L178.823 100.558L176.794 64.6675L197.829 63.5034L205.508 69.9356L207.157 98.9891Z" fill="#EBEBEB"/>
<path d="M197.829 63.5034L205.508 69.9356L198.219 70.3401L197.829 63.5034Z" fill="#DBDBDB"/>
<path d="M179.946 71.4451L195.699 70.5761L195.646 69.6502L179.894 70.5192L179.946 71.4451Z" fill="#DBDBDB"/>
<path d="M180.085 73.7743L195.837 72.9053L195.784 71.9794L180.032 72.8484L180.085 73.7743Z" fill="#DBDBDB"/>
<path d="M180.213 76.0936L195.965 75.2245L195.913 74.2986L180.161 75.1677L180.213 76.0936Z" fill="#DBDBDB"/>
<path d="M180.345 78.4221L203.424 77.1489L203.372 76.223L180.292 77.4963L180.345 78.4221Z" fill="#DBDBDB"/>
<path d="M180.483 80.7513L203.562 79.4781L203.51 78.5522L180.431 79.8254L180.483 80.7513Z" fill="#DBDBDB"/>
<path d="M180.612 83.0706L203.691 81.7974L203.638 80.8715L180.559 82.1447L180.612 83.0706Z" fill="#DBDBDB"/>
<path d="M180.75 85.3997L203.829 84.1265L203.777 83.2006L180.698 84.4738L180.75 85.3997Z" fill="#DBDBDB"/>
<path d="M180.879 87.7288L203.958 86.4556L203.906 85.5297L180.827 86.803L180.879 87.7288Z" fill="#DBDBDB"/>
<path d="M181.008 90.0586L204.087 88.7853L204.034 87.8594L180.955 89.1327L181.008 90.0586Z" fill="#DBDBDB"/>
<path d="M181.136 92.3779L204.215 91.1047L204.163 90.1788L181.084 91.452L181.136 92.3779Z" fill="#DBDBDB"/>
<path d="M181.274 94.6971L204.354 93.4239L204.301 92.498L181.222 93.7712L181.274 94.6971Z" fill="#DBDBDB"/>
<path d="M181.403 97.0362L204.483 95.7629L204.43 94.837L181.351 96.1103L181.403 97.0362Z" fill="#DBDBDB"/>
<path d="M184.292 108.785C184.293 111.125 185.19 113.377 186.803 115.091C188.416 116.806 190.626 117.855 192.99 118.029H246.189C249.106 118.16 251.956 117.142 254.112 115.2C256.269 113.257 257.554 110.549 257.687 107.671C257.82 104.793 256.788 101.98 254.819 99.8527C252.851 97.7251 250.106 96.4563 247.189 96.3255C247.052 92.0685 245.418 87.9914 242.567 84.793C239.717 81.5947 235.828 79.4743 231.566 78.7955C227.305 78.1167 222.937 78.9217 219.212 81.0725C215.486 83.2233 212.635 86.5859 211.147 90.5838C209.515 89.759 207.701 89.3496 205.868 89.3928C204.036 89.4361 202.243 89.9306 200.654 90.8315C199.064 91.7324 197.728 93.011 196.767 94.5512C195.806 96.0913 195.25 97.8441 195.15 99.6501C194.644 99.5707 194.132 99.5312 193.62 99.5317C191.142 99.5474 188.771 100.529 187.024 102.262C185.277 103.996 184.295 106.341 184.292 108.785Z" fill="#DFFF24"/>
<path opacity="0.1" d="M184.292 108.785C184.293 111.125 185.19 113.377 186.803 115.091C188.416 116.806 190.626 117.855 192.99 118.029H246.189C249.106 118.16 251.956 117.142 254.112 115.2C256.269 113.257 257.554 110.549 257.687 107.671C257.82 104.793 256.788 101.98 254.819 99.8527C252.851 97.7251 250.106 96.4563 247.189 96.3255C247.052 92.0685 245.418 87.9914 242.567 84.793C239.717 81.5947 235.828 79.4743 231.566 78.7955C227.305 78.1167 222.937 78.9217 219.212 81.0725C215.486 83.2233 212.635 86.5859 211.147 90.5838C209.515 89.759 207.701 89.3496 205.868 89.3928C204.036 89.4361 202.243 89.9306 200.654 90.8315C199.064 91.7324 197.728 93.011 196.767 94.5512C195.806 96.0913 195.25 97.8441 195.15 99.6501C194.644 99.5707 194.132 99.5312 193.62 99.5317C191.142 99.5474 188.771 100.529 187.024 102.262C185.277 103.996 184.295 106.341 184.292 108.785Z" fill="black"/>
<path d="M181.003 108.785C181.001 111.124 181.896 113.376 183.507 115.091C185.119 116.805 187.328 117.855 189.691 118.029H242.89C245.807 118.16 248.657 117.142 250.813 115.2C252.969 113.257 254.255 110.549 254.388 107.671C254.52 104.793 253.489 101.98 251.52 99.8528C249.551 97.7251 246.807 96.4564 243.89 96.3255C243.746 92.0708 242.109 87.9975 239.257 84.8028C236.406 81.608 232.518 79.4903 228.259 78.8119C224 78.1336 219.634 78.9369 215.909 81.0843C212.183 83.2317 209.33 86.5898 207.837 90.5839C206.206 89.759 204.392 89.3496 202.559 89.3929C200.726 89.4361 198.934 89.9307 197.344 90.8315C195.755 91.7324 194.419 93.0111 193.458 94.5512C192.496 96.0913 191.941 97.8441 191.841 99.6502C191.335 99.5708 190.823 99.5312 190.311 99.5318C187.836 99.55 185.468 100.533 183.725 102.266C181.981 104 181.003 106.343 181.003 108.785Z" fill="#DFFF24"/>
<path d="M222.634 102.205H213.036V110.334H222.634V102.205Z" fill="white"/>
<path d="M209.737 102.205H225.934L217.835 94.234L209.737 102.205Z" fill="white"/>
<path d="M250.788 98.2789H248.789V99.2654H250.788V98.2789Z" fill="#263238"/>
<path d="M270.374 99.2654H266.645V98.2789H270.374V99.2654ZM263.846 99.2654H260.107V98.2789H263.836L263.846 99.2654ZM257.317 99.2654H253.588V98.2789H257.317V99.2654Z" fill="#263238"/>
<path d="M275.673 100.745H274.674V99.2654H273.174V98.2789H275.673V100.745Z" fill="#263238"/>
<path d="M275.673 133.567H274.674V129.809H275.673V133.567ZM275.673 126.997H274.674V123.248H275.673V126.997ZM275.673 120.436H274.674V116.688H275.673V120.436ZM275.673 113.876H274.674V110.127H275.673V113.876ZM275.673 107.316H274.674V103.567H275.673V107.316Z" fill="#263238"/>
<path d="M275.673 136.379H274.674V138.352H275.673V136.379Z" fill="#263238"/>
<path d="M248.889 100.627C248.517 100.627 248.154 100.518 247.845 100.314C247.536 100.11 247.295 99.8208 247.152 99.4819C247.01 99.143 246.973 98.77 247.045 98.4103C247.118 98.0505 247.297 97.72 247.56 97.4606C247.823 97.2013 248.158 97.0246 248.522 96.9531C248.887 96.8815 249.265 96.9182 249.608 97.0586C249.952 97.199 250.245 97.4367 250.452 97.7417C250.658 98.0467 250.769 98.4053 250.769 98.7721C250.769 99.264 250.57 99.7357 250.218 100.084C249.865 100.431 249.387 100.627 248.889 100.627Z" fill="#263238"/>
<path d="M273.294 138.253C273.294 138.62 273.404 138.979 273.611 139.284C273.817 139.589 274.111 139.826 274.454 139.967C274.798 140.107 275.176 140.144 275.54 140.072C275.905 140.001 276.24 139.824 276.503 139.565C276.765 139.305 276.944 138.975 277.017 138.615C277.089 138.255 277.052 137.882 276.91 137.544C276.768 137.205 276.527 136.915 276.218 136.711C275.909 136.507 275.545 136.399 275.173 136.399C274.675 136.399 274.197 136.594 273.844 136.942C273.492 137.29 273.294 137.761 273.294 138.253Z" fill="#263238"/>
</svg>
